# Blender v2.90.0 OBJ File: 'HyperCasual.blend'
# www.blender.org
mtllib balk_1.mtl
o Цилиндр
v 0.218537 -2.516539 0.054759
v 0.190986 2.452160 -0.000000
v 0.109269 -2.516539 0.186368
v 0.104644 2.434187 0.181249
v -0.109269 -2.516539 0.186368
v -0.097707 2.455848 0.169233
v -0.218537 -2.516539 0.054759
v -0.190986 2.447792 -0.000000
v -0.109269 -2.516539 -0.134500
v -0.104644 2.424536 -0.181249
v 0.109269 -2.516539 -0.134500
v 0.097707 2.456294 -0.169233
v 0.224075 0.000000 -0.059641
v 0.112037 0.000000 0.134414
v -0.112037 0.000000 0.134414
v -0.224075 0.000000 -0.059641
v -0.112037 0.000000 -0.198026
v 0.112037 0.000000 -0.198026
vt 1.000000 0.750000
vt 1.000000 1.000000
vt 0.833333 1.000000
vt 0.833333 0.750000
vt 0.666667 1.000000
vt 0.666667 0.750000
vt 0.500000 1.000000
vt 0.500000 0.750000
vt 0.333333 1.000000
vt 0.333333 0.750000
vt 0.166667 1.000000
vt 0.166667 0.750000
vt -0.000000 1.000000
vt -0.000000 0.750000
vt 0.750000 0.490000
vt 0.957846 0.370000
vt 0.957846 0.130000
vt 0.750000 0.010000
vt 0.542154 0.130000
vt 0.542154 0.370000
vt 0.166667 0.500000
vt -0.000000 0.500000
vt 0.333333 0.500000
vt 0.500000 0.500000
vt 0.666667 0.500000
vt 0.833333 0.500000
vt 1.000000 0.500000
vn 0.8841 -0.0029 0.4672
vn -0.0290 -0.0166 0.9994
vn -0.8706 -0.0011 0.4920
vn -0.8491 0.0153 -0.5281
vn -0.0433 0.9988 -0.0237
vn 0.0275 0.0094 -0.9996
vn 0.8317 0.0180 -0.5549
vn 0.0000 -1.0000 0.0000
vn 0.8285 -0.0211 -0.5596
vn -0.0000 -0.0252 -0.9997
vn -0.8285 -0.0211 -0.5596
vn -0.8270 0.0172 0.5620
vn 0.0000 0.0206 0.9998
vn 0.8270 0.0172 0.5620
vn 0.0969 0.9849 0.1438
vn -0.1410 0.9712 -0.1918
vn 0.0205 0.9997 0.0131
usemtl None
s off
f 13/1/1 2/2/1 4/3/1 14/4/1
f 14/4/2 4/3/2 6/5/2 15/6/2
f 15/6/3 6/5/3 8/7/3 16/8/3
f 16/8/4 8/7/4 10/9/4 17/10/4
f 6/5/5 12/11/5 8/7/5
f 17/10/6 10/9/6 12/11/6 18/12/6
f 18/12/7 12/11/7 2/13/7 13/14/7
f 1/15/8 3/16/8 5/17/8 7/18/8 9/19/8 11/20/8
f 11/21/9 18/12/9 13/14/9 1/22/9
f 9/23/10 17/10/10 18/12/10 11/21/10
f 7/24/11 16/8/11 17/10/11 9/23/11
f 5/25/12 15/6/12 16/8/12 7/24/12
f 3/26/13 14/4/13 15/6/13 5/25/13
f 1/27/14 13/1/14 14/4/14 3/26/14
f 4/3/15 2/2/15 6/5/15
f 10/9/16 8/7/16 12/11/16
f 12/11/17 6/5/17 2/2/17
