# Blender v2.90.0 OBJ File: 'HyperCasual.blend'
# www.blender.org
mtllib damaged_floor_trap_3.mtl
o Куб.143_Куб.160
v -0.504506 0.119463 1.039777
v -0.505487 0.191333 1.040875
v 1.809192 0.172041 -0.335019
v 1.808212 0.243911 -0.333921
v -0.302617 0.117029 1.379452
v -0.303598 0.188899 1.380549
v 2.011082 0.169607 0.004656
v 2.010101 0.241477 0.005754
vt 0.375000 0.000000
vt 0.625000 0.000000
vt 0.625000 0.250000
vt 0.375000 0.250000
vt 0.625000 0.500000
vt 0.375000 0.500000
vt 0.625000 0.750000
vt 0.375000 0.750000
vt 0.625000 1.000000
vt 0.375000 1.000000
vt 0.125000 0.500000
vt 0.125000 0.750000
vt 0.875000 0.500000
vt 0.875000 0.750000
vn -0.5109 0.0062 -0.8596
vn 0.8595 0.0195 -0.5107
vn 0.5109 -0.0062 0.8596
vn -0.8595 -0.0195 0.5107
vn 0.0136 -0.9998 -0.0153
vn -0.0136 0.9998 0.0153
usemtl None
s off
f 1/1/1 2/2/1 4/3/1 3/4/1
f 3/4/2 4/3/2 8/5/2 7/6/2
f 7/6/3 8/5/3 6/7/3 5/8/3
f 5/8/4 6/7/4 2/9/4 1/10/4
f 3/11/5 7/6/5 5/8/5 1/12/5
f 8/5/6 4/13/6 2/14/6 6/7/6
o Куб.144_Куб.161
v 0.967541 0.093222 1.105626
v 0.966997 0.167978 1.105480
v 2.114016 0.096942 -1.274082
v 2.113472 0.171698 -1.274228
v 1.242545 0.095482 1.238118
v 1.242001 0.170238 1.237973
v 2.389019 0.099202 -1.141590
v 2.388475 0.173958 -1.141735
vt 0.375000 0.000000
vt 0.625000 0.000000
vt 0.625000 0.250000
vt 0.375000 0.250000
vt 0.625000 0.500000
vt 0.375000 0.500000
vt 0.625000 0.750000
vt 0.375000 0.750000
vt 0.625000 1.000000
vt 0.375000 1.000000
vt 0.125000 0.500000
vt 0.125000 0.750000
vt 0.875000 0.500000
vt 0.875000 0.750000
vn -0.9009 -0.0074 -0.4340
vn 0.4340 0.0014 -0.9009
vn 0.9009 0.0074 0.4340
vn -0.4340 -0.0014 0.9009
vn 0.0073 -1.0000 0.0019
vn -0.0073 1.0000 -0.0019
usemtl None
s off
f 9/15/7 10/16/7 12/17/7 11/18/7
f 11/18/8 12/17/8 16/19/8 15/20/8
f 15/20/9 16/19/9 14/21/9 13/22/9
f 13/22/10 14/21/10 10/23/10 9/24/10
f 11/25/11 15/20/11 13/22/11 9/26/11
f 16/19/12 12/27/12 10/28/12 14/21/12
o Куб.146_Куб.163
v -2.947636 0.166534 -0.292616
v -2.946415 0.230997 -0.293813
v -0.485306 0.101274 -1.295975
v -0.484085 0.165737 -1.297171
v -2.787787 0.170783 0.099391
v -2.786566 0.235246 0.098194
v -0.325457 0.105523 -0.903968
v -0.324236 0.169986 -0.905164
vt 0.375000 0.000000
vt 0.625000 0.000000
vt 0.625000 0.250000
vt 0.375000 0.250000
vt 0.625000 0.500000
vt 0.375000 0.500000
vt 0.625000 0.750000
vt 0.375000 0.750000
vt 0.625000 1.000000
vt 0.375000 1.000000
vt 0.125000 0.500000
vt 0.125000 0.750000
vt 0.875000 0.500000
vt 0.875000 0.750000
vn -0.3776 -0.0100 -0.9259
vn 0.9258 -0.0245 -0.3772
vn 0.3776 0.0100 0.9259
vn -0.9258 0.0245 0.3772
vn -0.0189 -0.9996 0.0186
vn 0.0189 0.9996 -0.0186
usemtl None
s off
f 17/29/13 18/30/13 20/31/13 19/32/13
f 19/32/14 20/31/14 24/33/14 23/34/14
f 23/34/15 24/33/15 22/35/15 21/36/15
f 21/36/16 22/35/16 18/37/16 17/38/16
f 19/39/17 23/34/17 21/36/17 17/40/17
f 24/33/18 20/41/18 18/42/18 22/35/18
o Куб.147_Куб.164
v -2.092038 0.095135 1.206350
v -2.092495 0.165720 1.206621
v -2.925539 0.098586 -1.098196
v -2.925996 0.169171 -1.097925
v -1.726876 0.098009 1.074283
v -1.727333 0.168594 1.074554
v -2.560377 0.101460 -1.230262
v -2.560834 0.172045 -1.229991
vt 0.375000 0.000000
vt 0.625000 0.000000
vt 0.625000 0.250000
vt 0.375000 0.250000
vt 0.625000 0.500000
vt 0.375000 0.500000
vt 0.625000 0.750000
vt 0.375000 0.750000
vt 0.625000 1.000000
vt 0.375000 1.000000
vt 0.125000 0.500000
vt 0.125000 0.750000
vt 0.875000 0.500000
vt 0.875000 0.750000
vn -0.9404 -0.0074 0.3401
vn -0.3401 0.0014 -0.9404
vn 0.9404 0.0074 -0.3401
vn 0.3401 -0.0014 0.9404
vn 0.0065 -1.0000 -0.0038
vn -0.0065 1.0000 0.0038
usemtl None
s off
f 25/43/19 26/44/19 28/45/19 27/46/19
f 27/46/20 28/45/20 32/47/20 31/48/20
f 31/48/21 32/47/21 30/49/21 29/50/21
f 29/50/22 30/49/22 26/51/22 25/52/22
f 27/53/23 31/48/23 29/50/23 25/54/23
f 32/47/24 28/55/24 26/56/24 30/49/24
o Куб.145_Куб.165
v 2.294065 0.095135 1.207156
v 2.293537 0.165720 1.207221
v 2.453187 0.098586 -1.238316
v 2.452660 0.169171 -1.238251
v 2.681555 0.098009 1.232373
v 2.681027 0.168594 1.232438
v 2.840677 0.101460 -1.213099
v 2.840150 0.172045 -1.213034
vt 0.375000 0.000000
vt 0.625000 0.000000
vt 0.625000 0.250000
vt 0.375000 0.250000
vt 0.625000 0.500000
vt 0.375000 0.500000
vt 0.625000 0.750000
vt 0.375000 0.750000
vt 0.625000 1.000000
vt 0.375000 1.000000
vt 0.125000 0.500000
vt 0.125000 0.750000
vt 0.875000 0.500000
vt 0.875000 0.750000
vn -0.9979 -0.0074 -0.0649
vn 0.0649 0.0014 -0.9979
vn 0.9979 0.0074 0.0649
vn -0.0649 -0.0014 0.9979
vn 0.0075 -1.0000 -0.0009
vn -0.0075 1.0000 0.0009
usemtl None
s off
f 33/57/25 34/58/25 36/59/25 35/60/25
f 35/60/26 36/59/26 40/61/26 39/62/26
f 39/62/27 40/61/27 38/63/27 37/64/27
f 37/64/28 38/63/28 34/65/28 33/66/28
f 35/67/29 39/62/29 37/64/29 33/68/29
f 40/61/30 36/69/30 34/70/30 38/63/30
o Куб.148_Куб.166
v 1.718590 0.737260 -1.279727
v 1.717852 0.793207 -1.155137
v 1.630016 -1.070363 -0.468542
v 1.629277 -1.014416 -0.343952
v 1.351564 0.751416 -1.288260
v 1.350825 0.807363 -1.163669
v 1.487430 -0.425717 -0.758865
v 1.486691 -0.369770 -0.634274
v 1.677197 -0.107496 -0.900636
v 1.676458 -0.051549 -0.776046
v 1.310170 -0.093340 -0.909169
v 1.309432 -0.037393 -0.784578
vt 0.375000 0.180322
vt 0.625000 0.180322
vt 0.625000 0.250000
vt 0.375000 0.250000
vt 0.625000 0.500000
vt 0.375000 0.500000
vt 0.375000 0.569678
vt 0.625000 0.569678
vt 0.625000 0.750000
vt 0.375000 0.750000
vt 0.625000 1.000000
vt 0.375000 1.000000
vt 0.125000 0.569678
vt 0.125000 0.750000
vt 0.875000 0.569678
vt 0.875000 0.750000
vt 0.875000 0.500000
vt 0.125000 0.500000
vt 0.375000 0.000000
vt 0.625000 0.000000
vn 0.9990 -0.0385 0.0232
vn -0.9802 -0.1825 0.0761
vn -0.9990 0.0385 -0.0232
vn 0.0447 0.9114 -0.4090
vn 0.0054 -0.4096 -0.9122
vn -0.0054 0.4096 0.9122
vn -0.8994 -0.4007 0.1746
usemtl None
s off
f 49/71/31 50/72/31 44/73/31 43/74/31
f 43/74/32 44/73/32 48/75/32 47/76/32
f 51/77/33 52/78/33 46/79/33 45/80/33
f 45/80/34 46/79/34 42/81/34 41/82/34
f 49/83/35 51/77/35 45/80/35 41/84/35
f 52/78/36 50/85/36 42/86/36 46/79/36
f 48/75/36 44/87/36 50/85/36 52/78/36
f 43/88/35 47/76/35 51/77/35 49/83/35
f 47/76/37 48/75/37 52/78/37 51/77/37
f 41/89/31 42/90/31 50/72/31 49/71/31
o Куб.142_Куб.230
v -3.038624 -0.126582 -1.068989
v -3.038624 0.126582 -1.068989
v 3.017369 -0.126582 -1.068990
v 3.017369 0.126582 -1.068990
v -3.038624 -0.126582 -0.942178
v -3.038624 0.126582 -0.942178
v 3.017369 -0.126582 -0.942179
v 3.017369 0.126582 -0.942179
vt 0.375000 0.000000
vt 0.625000 0.000000
vt 0.625000 0.250000
vt 0.375000 0.250000
vt 0.625000 0.500000
vt 0.375000 0.500000
vt 0.625000 0.750000
vt 0.375000 0.750000
vt 0.625000 1.000000
vt 0.375000 1.000000
vt 0.125000 0.500000
vt 0.125000 0.750000
vt 0.875000 0.500000
vt 0.875000 0.750000
vn -0.0000 0.0000 -1.0000
vn 1.0000 0.0000 0.0000
vn 0.0000 0.0000 1.0000
vn -1.0000 0.0000 0.0000
vn 0.0000 -1.0000 0.0000
vn -0.0000 1.0000 0.0000
usemtl None
s 1
f 53/91/38 54/92/38 56/93/38 55/94/38
f 55/94/39 56/93/39 60/95/39 59/96/39
f 59/96/40 60/95/40 58/97/40 57/98/40
f 57/98/41 58/97/41 54/99/41 53/100/41
f 55/101/42 59/96/42 57/98/42 53/102/42
f 60/95/43 56/103/43 54/104/43 58/97/43
o Куб.136_Куб.229
v -3.038624 -0.126582 0.931011
v -3.038624 0.126582 0.931011
v 3.017369 -0.126582 0.931010
v 3.017369 0.126582 0.931010
v -3.038624 -0.126582 1.057822
v -3.038624 0.126582 1.057822
v 3.017369 -0.126582 1.057821
v 3.017369 0.126582 1.057821
vt 0.375000 0.000000
vt 0.625000 0.000000
vt 0.625000 0.250000
vt 0.375000 0.250000
vt 0.625000 0.500000
vt 0.375000 0.500000
vt 0.625000 0.750000
vt 0.375000 0.750000
vt 0.625000 1.000000
vt 0.375000 1.000000
vt 0.125000 0.500000
vt 0.125000 0.750000
vt 0.875000 0.500000
vt 0.875000 0.750000
vn -0.0000 0.0000 -1.0000
vn 1.0000 0.0000 0.0000
vn 0.0000 0.0000 1.0000
vn -1.0000 0.0000 0.0000
vn 0.0000 -1.0000 0.0000
vn -0.0000 1.0000 0.0000
usemtl None
s 1
f 61/105/44 62/106/44 64/107/44 63/108/44
f 63/108/45 64/107/45 68/109/45 67/110/45
f 67/110/46 68/109/46 66/111/46 65/112/46
f 65/112/47 66/111/47 62/113/47 61/114/47
f 63/115/48 67/110/48 65/112/48 61/116/48
f 68/109/49 64/117/49 62/118/49 66/111/49
