# Blender v2.90.0 OBJ File: 'HyperCasual.blend'
# www.blender.org
mtllib damaged_floor_trap_2.mtl
o Куб.137_Куб.153
v -0.366808 0.119264 -0.968433
v -0.365827 0.191134 -0.969531
v -2.698367 0.172247 0.416976
v -2.697386 0.244117 0.415878
v -0.569249 0.116823 -1.309036
v -0.568268 0.188693 -1.310134
v -2.900808 0.169806 0.076372
v -2.899827 0.241676 0.075274
vt 0.375000 0.000000
vt 0.625000 0.000000
vt 0.625000 0.250000
vt 0.375000 0.250000
vt 0.625000 0.500000
vt 0.375000 0.500000
vt 0.625000 0.750000
vt 0.375000 0.750000
vt 0.625000 1.000000
vt 0.375000 1.000000
vt 0.125000 0.500000
vt 0.125000 0.750000
vt 0.875000 0.500000
vt 0.875000 0.750000
vn 0.5109 0.0062 0.8596
vn -0.8595 0.0195 0.5107
vn -0.5109 -0.0062 -0.8596
vn 0.8595 -0.0195 -0.5107
vn -0.0136 -0.9998 0.0153
vn 0.0136 0.9998 -0.0153
usemtl None
s off
f 1/1/1 2/2/1 4/3/1 3/4/1
f 3/4/2 4/3/2 8/5/2 7/6/2
f 7/6/3 8/5/3 6/7/3 5/8/3
f 5/8/4 6/7/4 2/9/4 1/10/4
f 3/11/5 7/6/5 5/8/5 1/12/5
f 8/5/6 4/13/6 2/14/6 6/7/6
o Куб.138_Куб.154
v -2.539181 0.093210 -1.304801
v -2.538649 0.167966 -1.304986
v -2.151681 0.096931 1.308705
v -2.151149 0.171687 1.308519
v -2.844219 0.095493 -1.259576
v -2.843687 0.170249 -1.259762
v -2.456720 0.099214 1.353929
v -2.456188 0.173970 1.353744
vt 0.375000 0.000000
vt 0.625000 0.000000
vt 0.625000 0.250000
vt 0.375000 0.250000
vt 0.625000 0.500000
vt 0.375000 0.500000
vt 0.625000 0.750000
vt 0.375000 0.750000
vt 0.625000 1.000000
vt 0.375000 1.000000
vt 0.125000 0.500000
vt 0.125000 0.750000
vt 0.875000 0.500000
vt 0.875000 0.750000
vn 0.9892 -0.0074 -0.1467
vn 0.1467 0.0014 0.9892
vn -0.9892 0.0074 0.1467
vn -0.1467 -0.0014 -0.9892
vn -0.0071 -1.0000 0.0025
vn 0.0071 1.0000 -0.0025
usemtl None
s off
f 9/15/7 10/16/7 12/17/7 11/18/7
f 11/18/8 12/17/8 16/19/8 15/20/8
f 15/20/9 16/19/9 14/21/9 13/22/9
f 13/22/10 14/21/10 10/23/10 9/24/10
f 11/25/11 15/20/11 13/22/11 9/26/11
f 16/19/12 12/27/12 10/28/12 14/21/12
o Куб.139_Куб.155
v 1.765482 0.101714 -1.272867
v 1.765392 0.168850 -1.272775
v 2.255379 0.098971 1.209423
v 2.255289 0.166107 1.209515
v 1.366978 0.101073 -1.194220
v 1.366888 0.168209 -1.194128
v 1.856875 0.098330 1.288070
v 1.856785 0.165466 1.288162
vt 0.375000 0.000000
vt 0.625000 0.000000
vt 0.625000 0.250000
vt 0.375000 0.250000
vt 0.625000 0.500000
vt 0.375000 0.500000
vt 0.625000 0.750000
vt 0.375000 0.750000
vt 0.625000 1.000000
vt 0.375000 1.000000
vt 0.125000 0.500000
vt 0.125000 0.750000
vt 0.875000 0.500000
vt 0.875000 0.750000
vn 0.9811 0.0016 -0.1936
vn 0.1936 -0.0011 0.9811
vn -0.9811 -0.0016 0.1936
vn -0.1936 0.0011 -0.9811
vn 0.0013 -1.0000 -0.0014
vn -0.0013 1.0000 0.0014
usemtl None
s off
f 17/29/13 18/30/13 20/31/13 19/32/13
f 19/32/14 20/31/14 24/33/14 23/34/14
f 23/34/15 24/33/15 22/35/15 21/36/15
f 21/36/16 22/35/16 18/37/16 17/38/16
f 19/39/17 23/34/17 21/36/17 17/40/17
f 24/33/18 20/41/18 18/42/18 22/35/18
o Куб.140_Куб.156
v 1.948977 0.166766 0.412691
v 1.947298 0.231229 0.412369
v -0.294268 0.101028 -1.050738
v -0.295947 0.165492 -1.051060
v 2.180920 0.171028 0.056960
v 2.179241 0.235492 0.056638
v -0.062325 0.105291 -1.406469
v -0.064003 0.169754 -1.406791
vt 0.375000 0.000000
vt 0.625000 0.000000
vt 0.625000 0.250000
vt 0.375000 0.250000
vt 0.625000 0.500000
vt 0.375000 0.500000
vt 0.625000 0.750000
vt 0.375000 0.750000
vt 0.625000 1.000000
vt 0.375000 1.000000
vt 0.125000 0.500000
vt 0.125000 0.750000
vt 0.875000 0.500000
vt 0.875000 0.750000
vn -0.5461 -0.0100 0.8376
vn -0.8373 -0.0245 -0.5462
vn 0.5461 0.0100 -0.8376
vn 0.8373 0.0245 0.5462
vn 0.0260 -0.9996 0.0050
vn -0.0260 0.9996 -0.0050
usemtl None
s off
f 25/43/19 26/44/19 28/45/19 27/46/19
f 27/46/20 28/45/20 32/47/20 31/48/20
f 31/48/21 32/47/21 30/49/21 29/50/21
f 29/50/22 30/49/22 26/51/22 25/52/22
f 27/53/23 31/48/23 29/50/23 25/54/23
f 32/47/24 28/55/24 26/56/24 30/49/24
o Куб.141_Куб.157
v 2.631599 0.095503 -1.224588
v 2.632092 0.164374 -1.224752
v 2.951330 0.098898 1.164908
v 2.951823 0.167769 1.164744
v 2.108230 0.099411 -1.154564
v 2.108722 0.168282 -1.154727
v 2.427961 0.102806 1.234933
v 2.428453 0.171677 1.234769
vt 0.375000 0.000000
vt 0.625000 0.000000
vt 0.625000 0.250000
vt 0.375000 0.250000
vt 0.625000 0.500000
vt 0.375000 0.500000
vt 0.625000 0.750000
vt 0.375000 0.750000
vt 0.625000 1.000000
vt 0.375000 1.000000
vt 0.125000 0.500000
vt 0.125000 0.750000
vt 0.875000 0.500000
vt 0.875000 0.750000
vn 0.9911 -0.0074 -0.1326
vn 0.1326 0.0014 0.9912
vn -0.9911 0.0074 0.1326
vn -0.1326 -0.0014 -0.9912
vn -0.0071 -1.0000 0.0024
vn 0.0071 1.0000 -0.0024
usemtl None
s off
f 33/57/25 34/58/25 36/59/25 35/60/25
f 35/60/26 36/59/26 40/61/26 39/62/26
f 39/62/27 40/61/27 38/63/27 37/64/27
f 37/64/28 38/63/28 34/65/28 33/66/28
f 35/67/29 39/62/29 37/64/29 33/68/29
f 40/61/30 36/69/30 34/70/30 38/63/30
o Куб.135_Куб.228
v -3.038624 -0.126582 -1.068989
v -3.038624 0.126582 -1.068989
v 3.017369 -0.126582 -1.068990
v 3.017369 0.126582 -1.068990
v -3.038624 -0.126582 -0.942178
v -3.038624 0.126582 -0.942178
v 3.017369 -0.126582 -0.942179
v 3.017369 0.126582 -0.942179
vt 0.375000 0.000000
vt 0.625000 0.000000
vt 0.625000 0.250000
vt 0.375000 0.250000
vt 0.625000 0.500000
vt 0.375000 0.500000
vt 0.625000 0.750000
vt 0.375000 0.750000
vt 0.625000 1.000000
vt 0.375000 1.000000
vt 0.125000 0.500000
vt 0.125000 0.750000
vt 0.875000 0.500000
vt 0.875000 0.750000
vn -0.0000 0.0000 -1.0000
vn 1.0000 0.0000 0.0000
vn 0.0000 0.0000 1.0000
vn -1.0000 0.0000 0.0000
vn 0.0000 -1.0000 0.0000
vn -0.0000 1.0000 0.0000
usemtl None
s 1
f 41/71/31 42/72/31 44/73/31 43/74/31
f 43/74/32 44/73/32 48/75/32 47/76/32
f 47/76/33 48/75/33 46/77/33 45/78/33
f 45/78/34 46/77/34 42/79/34 41/80/34
f 43/81/35 47/76/35 45/78/35 41/82/35
f 48/75/36 44/83/36 42/84/36 46/77/36
o Куб.134_Куб.227
v -3.038624 -0.126582 0.931011
v -3.038624 0.126582 0.931011
v 3.017369 -0.126582 0.931010
v 3.017369 0.126582 0.931010
v -3.038624 -0.126582 1.057822
v -3.038624 0.126582 1.057822
v 3.017369 -0.126582 1.057821
v 3.017369 0.126582 1.057821
vt 0.375000 0.000000
vt 0.625000 0.000000
vt 0.625000 0.250000
vt 0.375000 0.250000
vt 0.625000 0.500000
vt 0.375000 0.500000
vt 0.625000 0.750000
vt 0.375000 0.750000
vt 0.625000 1.000000
vt 0.375000 1.000000
vt 0.125000 0.500000
vt 0.125000 0.750000
vt 0.875000 0.500000
vt 0.875000 0.750000
vn -0.0000 0.0000 -1.0000
vn 1.0000 0.0000 0.0000
vn 0.0000 0.0000 1.0000
vn -1.0000 0.0000 0.0000
vn 0.0000 -1.0000 0.0000
vn -0.0000 1.0000 0.0000
usemtl None
s 1
f 49/85/37 50/86/37 52/87/37 51/88/37
f 51/88/38 52/87/38 56/89/38 55/90/38
f 55/90/39 56/89/39 54/91/39 53/92/39
f 53/92/40 54/91/40 50/93/40 49/94/40
f 51/95/41 55/90/41 53/92/41 49/96/41
f 56/89/42 52/97/42 50/98/42 54/91/42
