# Blender v2.90.0 OBJ File: 'HyperCasual.blend'
# www.blender.org
mtllib damaged_floor_trap_1.mtl
o Куб.125_Куб.144
v 0.584396 0.095199 1.313699
v 0.584540 0.169957 1.313761
v 0.191365 0.098052 -1.229306
v 0.191508 0.172810 -1.229244
v 1.046584 0.094370 1.242265
v 1.046727 0.169128 1.242327
v 0.653552 0.097223 -1.300740
v 0.653695 0.171981 -1.300678
vt 0.375000 0.000000
vt 0.625000 0.000000
vt 0.625000 0.250000
vt 0.375000 0.250000
vt 0.625000 0.500000
vt 0.375000 0.500000
vt 0.625000 0.750000
vt 0.375000 0.750000
vt 0.625000 1.000000
vt 0.375000 1.000000
vt 0.125000 0.500000
vt 0.125000 0.750000
vt 0.875000 0.500000
vt 0.875000 0.750000
vn -0.9883 0.0018 0.1527
vn -0.1527 0.0011 -0.9883
vn 0.9883 -0.0018 -0.1527
vn 0.1527 -0.0011 0.9883
vn -0.0019 -1.0000 -0.0008
vn 0.0019 1.0000 0.0008
usemtl None
s off
f 1/1/1 2/2/1 4/3/1 3/4/1
f 3/4/2 4/3/2 8/5/2 7/6/2
f 7/6/3 8/5/3 6/7/3 5/8/3
f 5/8/4 6/7/4 2/9/4 1/10/4
f 3/11/5 7/6/5 5/8/5 1/12/5
f 8/5/6 4/13/6 2/14/6 6/7/6
o Куб.127_Куб.145
v 0.314375 0.163149 -0.023813
v 0.314465 0.235034 -0.023708
v 2.989614 0.160230 -0.322337
v 2.989705 0.232115 -0.322233
v 0.358197 0.162525 0.368900
v 0.358287 0.234410 0.369004
v 3.033436 0.159606 0.070376
v 3.033526 0.231491 0.070480
vt 0.375000 0.000000
vt 0.625000 0.000000
vt 0.625000 0.250000
vt 0.375000 0.250000
vt 0.625000 0.500000
vt 0.375000 0.500000
vt 0.625000 0.750000
vt 0.375000 0.750000
vt 0.625000 1.000000
vt 0.375000 1.000000
vt 0.125000 0.500000
vt 0.125000 0.750000
vt 0.875000 0.500000
vt 0.875000 0.750000
vn -0.1109 0.0016 -0.9938
vn 0.9938 -0.0011 -0.1109
vn 0.1109 -0.0016 0.9938
vn -0.9938 0.0011 0.1109
vn -0.0013 -1.0000 -0.0014
vn 0.0013 1.0000 0.0014
usemtl None
s off
f 9/15/7 10/16/7 12/17/7 11/18/7
f 11/18/8 12/17/8 16/19/8 15/20/8
f 15/20/9 16/19/9 14/21/9 13/22/9
f 13/22/10 14/21/10 10/23/10 9/24/10
f 11/25/11 15/20/11 13/22/11 9/26/11
f 16/19/12 12/27/12 10/28/12 14/21/12
o Куб.129_Куб.146
v 2.695755 0.093222 1.312828
v 2.695224 0.167978 1.313013
v 2.308344 0.096942 -1.300087
v 2.307812 0.171698 -1.299902
v 2.997711 0.095482 1.268061
v 2.997179 0.170238 1.268246
v 2.610300 0.099202 -1.344854
v 2.609768 0.173958 -1.344669
vt 0.375000 0.000000
vt 0.625000 0.000000
vt 0.625000 0.250000
vt 0.375000 0.250000
vt 0.625000 0.500000
vt 0.375000 0.500000
vt 0.625000 0.750000
vt 0.375000 0.750000
vt 0.625000 1.000000
vt 0.375000 1.000000
vt 0.125000 0.500000
vt 0.125000 0.750000
vt 0.875000 0.500000
vt 0.875000 0.750000
vn -0.9892 -0.0074 0.1467
vn -0.1467 0.0014 -0.9892
vn 0.9892 0.0074 -0.1467
vn 0.1467 -0.0014 0.9892
vn 0.0071 -1.0000 -0.0025
vn -0.0071 1.0000 0.0025
usemtl None
s off
f 17/29/13 18/30/13 20/31/13 19/32/13
f 19/32/14 20/31/14 24/33/14 23/34/14
f 23/34/15 24/33/15 22/35/15 21/36/15
f 21/36/16 22/35/16 18/37/16 17/38/16
f 19/39/17 23/34/17 21/36/17 17/40/17
f 24/33/18 20/41/18 18/42/18 22/35/18
o Куб.131_Куб.147
v -1.564022 0.101711 1.280538
v -1.563932 0.168847 1.280446
v -2.053725 0.098968 -1.200776
v -2.053636 0.166104 -1.200868
v -1.169481 0.101076 1.202674
v -1.169391 0.168212 1.202582
v -1.659185 0.098333 -1.278641
v -1.659095 0.165469 -1.278733
vt 0.375000 0.000000
vt 0.625000 0.000000
vt 0.625000 0.250000
vt 0.375000 0.250000
vt 0.625000 0.500000
vt 0.375000 0.500000
vt 0.625000 0.750000
vt 0.375000 0.750000
vt 0.625000 1.000000
vt 0.375000 1.000000
vt 0.125000 0.500000
vt 0.125000 0.750000
vt 0.875000 0.500000
vt 0.875000 0.750000
vn -0.9811 0.0016 0.1936
vn -0.1936 -0.0011 -0.9811
vn 0.9811 -0.0016 -0.1936
vn 0.1936 0.0011 0.9811
vn -0.0013 -1.0000 0.0014
vn 0.0013 1.0000 -0.0014
usemtl None
s off
f 25/43/19 26/44/19 28/45/19 27/46/19
f 27/46/20 28/45/20 32/47/20 31/48/20
f 31/48/21 32/47/21 30/49/21 29/50/21
f 29/50/22 30/49/22 26/51/22 25/52/22
f 27/53/23 31/48/23 29/50/23 25/54/23
f 32/47/24 28/55/24 26/56/24 30/49/24
o Куб.132_Куб.148
v -1.874259 0.162040 0.245249
v -1.874304 0.226524 0.244853
v 0.633045 0.158346 -0.642146
v 0.633000 0.222831 -0.642542
v -1.733005 0.164589 0.644347
v -1.733050 0.229074 0.643951
v 0.774299 0.160896 -0.243047
v 0.774254 0.225380 -0.243443
vt 0.375000 0.000000
vt 0.625000 0.000000
vt 0.625000 0.250000
vt 0.375000 0.250000
vt 0.625000 0.500000
vt 0.375000 0.500000
vt 0.625000 0.750000
vt 0.375000 0.750000
vt 0.625000 1.000000
vt 0.375000 1.000000
vt 0.125000 0.500000
vt 0.125000 0.750000
vt 0.875000 0.500000
vt 0.875000 0.750000
vn -0.3336 -0.0060 -0.9427
vn 0.9427 -0.0014 -0.3336
vn 0.3336 0.0060 0.9427
vn -0.9427 0.0014 0.3336
vn 0.0007 -1.0000 0.0061
vn -0.0007 1.0000 -0.0061
usemtl None
s off
f 33/57/25 34/58/25 36/59/25 35/60/25
f 35/60/26 36/59/26 40/61/26 39/62/26
f 39/62/27 40/61/27 38/63/27 37/64/27
f 37/64/28 38/63/28 34/65/28 33/66/28
f 35/67/29 39/62/29 37/64/29 33/68/29
f 40/61/30 36/69/30 34/70/30 38/63/30
o Куб.133_Куб.149
v -2.936783 0.095135 1.151350
v -2.937315 0.165720 1.151350
v -2.477783 0.098586 -1.255925
v -2.478315 0.169171 -1.255925
v -2.555346 0.098009 1.224084
v -2.555877 0.168594 1.224084
v -2.096346 0.101460 -1.183191
v -2.096878 0.172045 -1.183191
vt 0.375000 0.000000
vt 0.625000 0.000000
vt 0.625000 0.250000
vt 0.375000 0.250000
vt 0.625000 0.500000
vt 0.375000 0.500000
vt 0.625000 0.750000
vt 0.375000 0.750000
vt 0.625000 1.000000
vt 0.375000 1.000000
vt 0.125000 0.500000
vt 0.125000 0.750000
vt 0.875000 0.500000
vt 0.875000 0.750000
vn -0.9823 -0.0074 -0.1873
vn 0.1873 0.0014 -0.9823
vn 0.9823 0.0074 0.1873
vn -0.1873 -0.0014 0.9823
vn 0.0075 -1.0000 0.0000
vn -0.0075 1.0000 -0.0000
usemtl None
s off
f 41/71/31 42/72/31 44/73/31 43/74/31
f 43/74/32 44/73/32 48/75/32 47/76/32
f 47/76/33 48/75/33 46/77/33 45/78/33
f 45/78/34 46/77/34 42/79/34 41/80/34
f 43/81/35 47/76/35 45/78/35 41/82/35
f 48/75/36 44/83/36 42/84/36 46/77/36
o Куб.123_Куб.226
v -3.038624 -0.126582 -1.068989
v -3.038624 0.126582 -1.068989
v 3.017369 -0.126582 -1.068990
v 3.017369 0.126582 -1.068990
v -3.038624 -0.126582 -0.942178
v -3.038624 0.126582 -0.942178
v 3.017369 -0.126582 -0.942179
v 3.017369 0.126582 -0.942179
vt 0.375000 0.000000
vt 0.625000 0.000000
vt 0.625000 0.250000
vt 0.375000 0.250000
vt 0.625000 0.500000
vt 0.375000 0.500000
vt 0.625000 0.750000
vt 0.375000 0.750000
vt 0.625000 1.000000
vt 0.375000 1.000000
vt 0.125000 0.500000
vt 0.125000 0.750000
vt 0.875000 0.500000
vt 0.875000 0.750000
vn -0.0000 0.0000 -1.0000
vn 1.0000 0.0000 0.0000
vn 0.0000 0.0000 1.0000
vn -1.0000 0.0000 0.0000
vn 0.0000 -1.0000 0.0000
vn -0.0000 1.0000 0.0000
usemtl None
s 1
f 49/85/37 50/86/37 52/87/37 51/88/37
f 51/88/38 52/87/38 56/89/38 55/90/38
f 55/90/39 56/89/39 54/91/39 53/92/39
f 53/92/40 54/91/40 50/93/40 49/94/40
f 51/95/41 55/90/41 53/92/41 49/96/41
f 56/89/42 52/97/42 50/98/42 54/91/42
o Куб.122_Куб.219
v -3.038624 -0.126582 0.931011
v -3.038624 0.126582 0.931011
v 3.017369 -0.126582 0.931010
v 3.017369 0.126582 0.931010
v -3.038624 -0.126582 1.057822
v -3.038624 0.126582 1.057822
v 3.017369 -0.126582 1.057821
v 3.017369 0.126582 1.057821
vt 0.375000 0.000000
vt 0.625000 0.000000
vt 0.625000 0.250000
vt 0.375000 0.250000
vt 0.625000 0.500000
vt 0.375000 0.500000
vt 0.625000 0.750000
vt 0.375000 0.750000
vt 0.625000 1.000000
vt 0.375000 1.000000
vt 0.125000 0.500000
vt 0.125000 0.750000
vt 0.875000 0.500000
vt 0.875000 0.750000
vn -0.0000 0.0000 -1.0000
vn 1.0000 0.0000 0.0000
vn 0.0000 0.0000 1.0000
vn -1.0000 0.0000 0.0000
vn 0.0000 -1.0000 0.0000
vn -0.0000 1.0000 0.0000
usemtl None
s 1
f 57/99/43 58/100/43 60/101/43 59/102/43
f 59/102/44 60/101/44 64/103/44 63/104/44
f 63/104/45 64/103/45 62/105/45 61/106/45
f 61/106/46 62/105/46 58/107/46 57/108/46
f 59/109/47 63/104/47 61/106/47 57/110/47
f 64/103/48 60/111/48 58/112/48 62/105/48
