# Blender v2.90.0 OBJ File: 'HyperCasual.blend'
# www.blender.org
mtllib damaged_fence_2.mtl
o Куб.158_Куб.178
v 0.899380 -0.032298 -0.709764
v 0.952828 1.331404 -0.687414
v 0.899380 -0.032298 -0.817698
v 0.952828 1.331404 -0.795348
v 0.997709 -0.032298 -0.709764
v 1.051157 1.331404 -0.687414
v 0.997709 -0.032298 -0.817698
v 1.051157 1.331404 -0.795348
v 0.952828 0.734669 -0.709764
v 0.952828 0.734669 -0.817698
v 1.051157 0.734669 -0.817698
v 1.051157 0.734669 -0.709764
v 0.903812 0.351185 -0.817698
v 1.002142 0.351185 -0.817698
v 1.002142 0.351185 -0.709764
v 0.903812 0.351185 -0.709764
vt 0.500000 0.000000
vt 0.625000 0.000000
vt 0.625000 0.250000
vt 0.500000 0.250000
vt 0.625000 0.500000
vt 0.500000 0.500000
vt 0.625000 0.750000
vt 0.500000 0.750000
vt 0.625000 1.000000
vt 0.500000 1.000000
vt 0.125000 0.500000
vt 0.375000 0.500000
vt 0.375000 0.750000
vt 0.125000 0.750000
vt 0.875000 0.500000
vt 0.875000 0.750000
vt 0.437500 0.750000
vt 0.437500 1.000000
vt 0.437500 0.500000
vt 0.437500 0.250000
vt 0.437500 0.000000
vt 0.375000 0.000000
vt 0.375000 0.250000
vt 0.375000 1.000000
vn -1.0000 0.0000 0.0000
vn 0.0000 0.0374 -0.9993
vn 1.0000 0.0000 0.0000
vn 0.0000 -0.0374 0.9993
vn 0.0000 -1.0000 0.0000
vn 0.0000 1.0000 0.0000
vn 0.0000 0.0000 1.0000
vn 0.9919 -0.1268 0.0000
vn 0.0000 0.0000 -1.0000
vn -0.9919 0.1268 0.0000
vn -0.9999 0.0116 0.0000
vn 0.9999 -0.0116 0.0000
usemtl None
s off
f 9/1/1 2/2/1 4/3/1 10/4/1
f 10/4/2 4/3/2 8/5/2 11/6/2
f 11/6/3 8/5/3 6/7/3 12/8/3
f 12/8/4 6/7/4 2/9/4 9/10/4
f 3/11/5 7/12/5 5/13/5 1/14/5
f 8/5/6 4/15/6 2/16/6 6/7/6
f 15/17/7 12/8/7 9/10/7 16/18/7
f 14/19/8 11/6/8 12/8/8 15/17/8
f 13/20/9 10/4/9 11/6/9 14/19/9
f 16/21/10 9/1/10 10/4/10 13/20/10
f 1/22/11 16/21/11 13/20/11 3/23/11
f 3/23/9 13/20/9 14/19/9 7/12/9
f 7/12/12 14/19/12 15/17/12 5/13/12
f 5/13/7 15/17/7 16/18/7 1/24/7
o Куб.159_Куб.179
v 0.899380 -0.032298 0.813305
v 0.952828 1.397474 0.780474
v 0.899380 -0.032298 0.705372
v 0.952828 1.501635 0.672540
v 0.997709 -0.032298 0.813305
v 1.051157 1.397474 0.780474
v 0.997709 -0.032298 0.705372
v 1.051157 1.501635 0.672540
v 0.952828 0.734669 0.813305
v 0.952828 0.734669 0.705372
v 1.051157 0.734669 0.705372
v 1.051157 0.734669 0.813305
v 0.903812 0.351185 0.705372
v 1.002142 0.351185 0.705372
v 1.002142 0.351185 0.813305
v 0.903812 0.351185 0.813305
vt 0.500000 0.000000
vt 0.625000 0.000000
vt 0.625000 0.250000
vt 0.500000 0.250000
vt 0.625000 0.500000
vt 0.500000 0.500000
vt 0.625000 0.750000
vt 0.500000 0.750000
vt 0.625000 1.000000
vt 0.500000 1.000000
vt 0.125000 0.500000
vt 0.375000 0.500000
vt 0.375000 0.750000
vt 0.125000 0.750000
vt 0.875000 0.500000
vt 0.875000 0.750000
vt 0.437500 0.750000
vt 0.437500 1.000000
vt 0.437500 0.500000
vt 0.437500 0.250000
vt 0.437500 0.000000
vt 0.375000 0.000000
vt 0.375000 0.250000
vt 0.375000 1.000000
vn -1.0000 0.0000 0.0000
vn 0.0000 -0.0428 -0.9991
vn 1.0000 0.0000 0.0000
vn 0.0000 0.0495 0.9988
vn 0.0000 -1.0000 0.0000
vn 0.0000 0.7196 0.6944
vn 0.0000 0.0000 1.0000
vn 0.9919 -0.1268 0.0000
vn 0.0000 0.0000 -1.0000
vn -0.9919 0.1268 0.0000
vn -0.9999 0.0116 0.0000
vn 0.9999 -0.0116 0.0000
usemtl None
s off
f 25/25/13 18/26/13 20/27/13 26/28/13
f 26/28/14 20/27/14 24/29/14 27/30/14
f 27/30/15 24/29/15 22/31/15 28/32/15
f 28/32/16 22/31/16 18/33/16 25/34/16
f 19/35/17 23/36/17 21/37/17 17/38/17
f 24/29/18 20/39/18 18/40/18 22/31/18
f 31/41/19 28/32/19 25/34/19 32/42/19
f 30/43/20 27/30/20 28/32/20 31/41/20
f 29/44/21 26/28/21 27/30/21 30/43/21
f 32/45/22 25/25/22 26/28/22 29/44/22
f 17/46/23 32/45/23 29/44/23 19/47/23
f 19/47/21 29/44/21 30/43/21 23/36/21
f 23/36/24 30/43/24 31/41/24 21/37/24
f 21/37/19 31/41/19 32/42/19 17/48/19
o Куб.160_Куб.180
v 0.929023 0.307121 0.894747
v 0.880723 0.312991 0.894455
v 0.946407 0.359227 -0.933077
v 0.898107 0.365098 -0.933369
v 0.977307 0.704943 0.906547
v 0.929007 0.710814 0.906255
v 0.952157 0.639641 -0.921527
v 0.903857 0.645512 -0.921819
vt 0.375000 0.000000
vt 0.625000 0.000000
vt 0.625000 0.250000
vt 0.375000 0.250000
vt 0.625000 0.500000
vt 0.375000 0.500000
vt 0.625000 0.750000
vt 0.375000 0.750000
vt 0.625000 1.000000
vt 0.375000 1.000000
vt 0.125000 0.500000
vt 0.125000 0.750000
vt 0.875000 0.500000
vt 0.875000 0.750000
vn -0.1204 -0.9923 -0.0294
vn 0.0110 0.0409 -0.9991
vn 0.1208 0.9920 -0.0371
vn -0.0095 -0.0285 0.9995
vn 0.9968 -0.0794 -0.0018
vn -0.9968 0.0794 0.0018
usemtl None
s off
f 33/49/25 34/50/25 36/51/25 35/52/25
f 35/52/26 36/51/26 40/53/26 39/54/26
f 39/54/27 40/53/27 38/55/27 37/56/27
f 37/56/28 38/55/28 34/57/28 33/58/28
f 35/59/29 39/54/29 37/56/29 33/60/29
f 40/53/30 36/61/30 34/62/30 38/55/30
o Куб.162_Куб.182
v 0.988776 1.036128 0.934790
v 0.941715 1.036339 0.934646
v 0.993614 0.877975 -0.878698
v 0.946553 0.878186 -0.878842
v 0.990039 1.301862 0.911619
v 0.942978 1.302074 0.911475
v 0.994877 1.143710 -0.901869
v 0.947816 1.143921 -0.902013
vt 0.375000 0.000000
vt 0.625000 0.000000
vt 0.625000 0.250000
vt 0.375000 0.250000
vt 0.625000 0.500000
vt 0.375000 0.500000
vt 0.625000 0.750000
vt 0.375000 0.750000
vt 0.625000 1.000000
vt 0.375000 1.000000
vt 0.125000 0.500000
vt 0.125000 0.750000
vt 0.875000 0.500000
vt 0.875000 0.750000
vn -0.0047 -0.9962 0.0869
vn 0.0027 -0.0869 -0.9962
vn 0.0047 0.9962 -0.0869
vn -0.0027 0.0869 0.9962
vn 1.0000 -0.0045 0.0031
vn -1.0000 0.0045 -0.0031
usemtl None
s off
f 41/63/31 42/64/31 44/65/31 43/66/31
f 43/66/32 44/65/32 48/67/32 47/68/32
f 47/68/33 48/67/33 46/69/33 45/70/33
f 45/70/34 46/69/34 42/71/34 41/72/34
f 43/73/35 47/68/35 45/70/35 41/74/35
f 48/67/36 44/75/36 42/76/36 46/69/36
