# Blender v2.90.0 OBJ File: 'HyperCasual.blend'
# www.blender.org
mtllib fence_2.mtl
o Куб.016_Куб.032
v 0.938993 -0.048635 -0.732707
v 1.008996 1.818020 -0.708931
v 0.938993 -0.048635 -0.847533
v 1.008996 1.818020 -0.823757
v 1.067781 -0.048635 -0.732707
v 1.137784 1.818020 -0.708931
v 1.067781 -0.048635 -0.847533
v 1.137784 1.818020 -0.823757
v 1.008996 0.884692 -0.732707
v 1.008996 0.884692 -0.847533
v 1.137784 0.884692 -0.847533
v 1.137784 0.884692 -0.732707
v 0.944798 0.418029 -0.847533
v 1.073586 0.418029 -0.847533
v 1.073586 0.418029 -0.732707
v 0.944798 0.418029 -0.732707
vt 0.500000 0.000000
vt 0.625000 0.000000
vt 0.625000 0.250000
vt 0.500000 0.250000
vt 0.625000 0.500000
vt 0.500000 0.500000
vt 0.625000 0.750000
vt 0.500000 0.750000
vt 0.625000 1.000000
vt 0.500000 1.000000
vt 0.125000 0.500000
vt 0.375000 0.500000
vt 0.375000 0.750000
vt 0.125000 0.750000
vt 0.875000 0.500000
vt 0.875000 0.750000
vt 0.437500 0.750000
vt 0.437500 1.000000
vt 0.437500 0.500000
vt 0.437500 0.250000
vt 0.437500 0.000000
vt 0.375000 0.000000
vt 0.375000 0.250000
vt 0.375000 1.000000
vn -1.0000 0.0000 0.0000
vn 0.0000 0.0255 -0.9997
vn 1.0000 -0.0000 0.0000
vn 0.0000 -0.0255 0.9997
vn 0.0000 -1.0000 0.0000
vn 0.0000 1.0000 0.0000
vn 0.0000 0.0000 1.0000
vn 0.9907 -0.1363 0.0000
vn 0.0000 0.0000 -1.0000
vn -0.9907 0.1363 0.0000
vn -0.9999 0.0124 0.0000
vn 0.9999 -0.0124 0.0000
usemtl None
s off
f 9/1/1 2/2/1 4/3/1 10/4/1
f 10/4/2 4/3/2 8/5/2 11/6/2
f 11/6/3 8/5/3 6/7/3 12/8/3
f 12/8/4 6/7/4 2/9/4 9/10/4
f 3/11/5 7/12/5 5/13/5 1/14/5
f 8/5/6 4/15/6 2/16/6 6/7/6
f 15/17/7 12/8/7 9/10/7 16/18/7
f 14/19/8 11/6/8 12/8/8 15/17/8
f 13/20/9 10/4/9 11/6/9 14/19/9
f 16/21/10 9/1/10 10/4/10 13/20/10
f 1/22/11 16/21/11 13/20/11 3/23/11
f 3/23/9 13/20/9 14/19/9 7/12/9
f 7/12/12 14/19/12 15/17/12 5/13/12
f 5/13/7 15/17/7 16/18/7 1/24/7
o Куб.018_Куб.033
v 0.938993 -0.048635 0.887616
v 1.008996 1.818020 0.852688
v 0.938993 -0.048635 0.772790
v 1.008996 1.818020 0.737862
v 1.067781 -0.048635 0.887616
v 1.137784 1.818020 0.852688
v 1.067781 -0.048635 0.772790
v 1.137784 1.818020 0.737862
v 1.008996 0.884692 0.887616
v 1.008996 0.884692 0.772790
v 1.137784 0.884692 0.772790
v 1.137784 0.884692 0.887616
v 0.944798 0.418029 0.772790
v 1.073586 0.418029 0.772790
v 1.073586 0.418029 0.887616
v 0.944798 0.418029 0.887616
vt 0.500000 0.000000
vt 0.625000 0.000000
vt 0.625000 0.250000
vt 0.500000 0.250000
vt 0.625000 0.500000
vt 0.500000 0.500000
vt 0.625000 0.750000
vt 0.500000 0.750000
vt 0.625000 1.000000
vt 0.500000 1.000000
vt 0.125000 0.500000
vt 0.375000 0.500000
vt 0.375000 0.750000
vt 0.125000 0.750000
vt 0.875000 0.500000
vt 0.875000 0.750000
vt 0.437500 0.750000
vt 0.437500 1.000000
vt 0.437500 0.500000
vt 0.437500 0.250000
vt 0.437500 0.000000
vt 0.375000 0.000000
vt 0.375000 0.250000
vt 0.375000 1.000000
vn -1.0000 0.0000 0.0000
vn 0.0000 -0.0374 -0.9993
vn 1.0000 -0.0000 0.0000
vn 0.0000 0.0374 0.9993
vn 0.0000 -1.0000 0.0000
vn 0.0000 1.0000 0.0000
vn 0.0000 0.0000 1.0000
vn 0.9907 -0.1363 0.0000
vn 0.0000 0.0000 -1.0000
vn -0.9907 0.1363 0.0000
vn -0.9999 0.0124 0.0000
vn 0.9999 -0.0124 0.0000
usemtl None
s off
f 25/25/13 18/26/13 20/27/13 26/28/13
f 26/28/14 20/27/14 24/29/14 27/30/14
f 27/30/15 24/29/15 22/31/15 28/32/15
f 28/32/16 22/31/16 18/33/16 25/34/16
f 19/35/17 23/36/17 21/37/17 17/38/17
f 24/29/18 20/39/18 18/40/18 22/31/18
f 31/41/19 28/32/19 25/34/19 32/42/19
f 30/43/20 27/30/20 28/32/20 31/41/20
f 29/44/21 26/28/21 27/30/21 30/43/21
f 32/45/22 25/25/22 26/28/22 29/44/22
f 17/46/23 32/45/23 29/44/23 19/47/23
f 19/47/21 29/44/21 30/43/21 23/36/21
f 23/36/24 30/43/24 31/41/24 21/37/24
f 21/37/19 31/41/19 32/42/19 17/48/19
o Куб.019_Куб.034
v 0.993388 0.472363 0.951960
v 0.935436 0.480360 0.952036
v 0.990041 0.466463 -0.975468
v 0.932089 0.474460 -0.975392
v 1.033131 0.760388 0.951009
v 0.975180 0.768385 0.951085
v 1.029785 0.754489 -0.976419
v 0.971833 0.762486 -0.976343
vt 0.375000 0.000000
vt 0.625000 0.000000
vt 0.625000 0.250000
vt 0.375000 0.250000
vt 0.625000 0.500000
vt 0.375000 0.500000
vt 0.625000 0.750000
vt 0.375000 0.750000
vt 0.625000 1.000000
vt 0.375000 1.000000
vt 0.125000 0.500000
vt 0.125000 0.750000
vt 0.875000 0.500000
vt 0.875000 0.750000
vn -0.1367 -0.9906 0.0033
vn -0.0017 -0.0031 -1.0000
vn 0.1367 0.9906 -0.0033
vn 0.0017 0.0031 1.0000
vn 0.9906 -0.1367 -0.0013
vn -0.9906 0.1367 0.0013
usemtl None
s off
f 33/49/25 34/50/25 36/51/25 35/52/25
f 35/52/26 36/51/26 40/53/26 39/54/26
f 39/54/27 40/53/27 38/55/27 37/56/27
f 37/56/28 38/55/28 34/57/28 33/58/28
f 35/59/29 39/54/29 37/56/29 33/60/29
f 40/53/30 36/61/30 34/62/30 38/55/30
o Куб.020_Куб.035
v 1.052658 0.817372 0.946992
v 0.995373 0.817495 0.947074
v 1.049986 0.829143 -0.950218
v 0.992701 0.829266 -0.950136
v 1.053291 1.110880 0.948812
v 0.996006 1.111003 0.948894
v 1.050619 1.122651 -0.948398
v 0.993334 1.122774 -0.948316
vt 0.375000 0.000000
vt 0.625000 0.000000
vt 0.625000 0.250000
vt 0.375000 0.250000
vt 0.625000 0.500000
vt 0.375000 0.500000
vt 0.625000 0.750000
vt 0.375000 0.750000
vt 0.625000 1.000000
vt 0.375000 1.000000
vt 0.125000 0.500000
vt 0.125000 0.750000
vt 0.875000 0.500000
vt 0.875000 0.750000
vn -0.0022 -1.0000 -0.0062
vn -0.0014 0.0062 -1.0000
vn 0.0022 1.0000 0.0062
vn 0.0014 -0.0062 1.0000
vn 1.0000 -0.0021 -0.0014
vn -1.0000 0.0021 0.0014
usemtl None
s off
f 41/63/31 42/64/31 44/65/31 43/66/31
f 43/66/32 44/65/32 48/67/32 47/68/32
f 47/68/33 48/67/33 46/69/33 45/70/33
f 45/70/34 46/69/34 42/71/34 41/72/34
f 43/73/35 47/68/35 45/70/35 41/74/35
f 48/67/36 44/75/36 42/76/36 46/69/36
o Куб.025_Куб.040
v 1.055555 1.172736 0.979470
v 0.996436 1.174416 0.979553
v 1.052550 1.163394 -0.979793
v 0.993431 1.165074 -0.979711
v 1.061954 1.397945 0.978387
v 1.002835 1.399625 0.978469
v 1.058948 1.388603 -0.980877
v 0.999829 1.390283 -0.980794
vt 0.375000 0.000000
vt 0.625000 0.000000
vt 0.625000 0.250000
vt 0.375000 0.250000
vt 0.625000 0.500000
vt 0.375000 0.500000
vt 0.625000 0.750000
vt 0.375000 0.750000
vt 0.625000 1.000000
vt 0.375000 1.000000
vt 0.125000 0.500000
vt 0.125000 0.750000
vt 0.875000 0.500000
vt 0.875000 0.750000
vn -0.0284 -0.9996 0.0048
vn -0.0015 -0.0048 -1.0000
vn 0.0284 0.9996 -0.0048
vn 0.0015 0.0048 1.0000
vn 0.9996 -0.0284 -0.0014
vn -0.9996 0.0284 0.0014
usemtl None
s off
f 49/77/37 50/78/37 52/79/37 51/80/37
f 51/80/38 52/79/38 56/81/38 55/82/38
f 55/82/39 56/81/39 54/83/39 53/84/39
f 53/84/40 54/83/40 50/85/40 49/86/40
f 51/87/41 55/82/41 53/84/41 49/88/41
f 56/81/42 52/89/42 50/90/42 54/83/42
o Куб.026_Куб.041
v 1.060237 1.443787 0.943422
v 1.002479 1.443464 0.943499
v 1.057615 1.453563 -0.969329
v 0.999857 1.453240 -0.969251
v 1.058655 1.726393 0.944868
v 1.000898 1.726070 0.944946
v 1.056033 1.736169 -0.967882
v 0.998275 1.735846 -0.967805
vt 0.375000 0.000000
vt 0.625000 0.000000
vt 0.625000 0.250000
vt 0.375000 0.250000
vt 0.625000 0.500000
vt 0.375000 0.500000
vt 0.625000 0.750000
vt 0.375000 0.750000
vt 0.625000 1.000000
vt 0.375000 1.000000
vt 0.125000 0.500000
vt 0.125000 0.750000
vt 0.875000 0.500000
vt 0.875000 0.750000
vn 0.0056 -1.0000 -0.0051
vn -0.0014 0.0051 -1.0000
vn -0.0056 1.0000 0.0051
vn 0.0014 -0.0051 1.0000
vn 1.0000 0.0056 -0.0013
vn -1.0000 -0.0056 0.0013
usemtl None
s off
f 57/91/43 58/92/43 60/93/43 59/94/43
f 59/94/44 60/93/44 64/95/44 63/96/44
f 63/96/45 64/95/45 62/97/45 61/98/45
f 61/98/46 62/97/46 58/99/46 57/100/46
f 59/101/47 63/96/47 61/98/47 57/102/47
f 64/95/48 60/103/48 58/104/48 62/97/48
