# Blender v2.90.0 OBJ File: 'HyperCasual.blend'
# www.blender.org
mtllib floor_buer_1.mtl
o Куб.015_Куб.133
v -1.033517 -0.126582 -1.012804
v -1.033517 0.126582 -1.012804
v 1.018430 -0.126582 -1.012805
v 1.018430 0.126582 -1.012805
v -1.033517 -0.126582 -0.892658
v -1.033517 0.126582 -0.892658
v 1.018430 -0.126582 -0.892659
v 1.018430 0.126582 -0.892659
vt 0.375000 0.000000
vt 0.625000 0.000000
vt 0.625000 0.250000
vt 0.375000 0.250000
vt 0.625000 0.500000
vt 0.375000 0.500000
vt 0.625000 0.750000
vt 0.375000 0.750000
vt 0.625000 1.000000
vt 0.375000 1.000000
vt 0.125000 0.500000
vt 0.125000 0.750000
vt 0.875000 0.500000
vt 0.875000 0.750000
vn -0.0000 0.0000 -1.0000
vn 1.0000 0.0000 0.0000
vn 0.0000 0.0000 1.0000
vn -1.0000 0.0000 0.0000
vn 0.0000 -1.0000 0.0000
vn -0.0000 1.0000 0.0000
usemtl None
s 1
f 1/1/1 2/2/1 4/3/1 3/4/1
f 3/4/2 4/3/2 8/5/2 7/6/2
f 7/6/3 8/5/3 6/7/3 5/8/3
f 5/8/4 6/7/4 2/9/4 1/10/4
f 3/11/5 7/6/5 5/8/5 1/12/5
f 8/5/6 4/13/6 2/14/6 6/7/6
o Куб.036_Куб.134
v -1.033517 -0.126582 0.882078
v -1.033517 0.126582 0.882078
v 1.018430 -0.126582 0.882077
v 1.018430 0.126582 0.882077
v -1.033517 -0.126582 1.002224
v -1.033517 0.126582 1.002224
v 1.018430 -0.126582 1.002223
v 1.018430 0.126582 1.002223
vt 0.375000 0.000000
vt 0.625000 0.000000
vt 0.625000 0.250000
vt 0.375000 0.250000
vt 0.625000 0.500000
vt 0.375000 0.500000
vt 0.625000 0.750000
vt 0.375000 0.750000
vt 0.625000 1.000000
vt 0.375000 1.000000
vt 0.125000 0.500000
vt 0.125000 0.750000
vt 0.875000 0.500000
vt 0.875000 0.750000
vn -0.0000 0.0000 -1.0000
vn 1.0000 0.0000 0.0000
vn 0.0000 0.0000 1.0000
vn -1.0000 0.0000 0.0000
vn 0.0000 -1.0000 0.0000
vn -0.0000 1.0000 0.0000
usemtl None
s 1
f 9/15/7 10/16/7 12/17/7 11/18/7
f 11/18/8 12/17/8 16/19/8 15/20/8
f 15/20/9 16/19/9 14/21/9 13/22/9
f 13/22/10 14/21/10 10/23/10 9/24/10
f 11/25/11 15/20/11 13/22/11 9/26/11
f 16/19/12 12/27/12 10/28/12 14/21/12
o Куб.047_Куб.136
v -1.017405 0.095313 0.981589
v -1.017264 0.170071 0.981658
v -1.019370 0.097891 -0.990837
v -1.019229 0.172649 -0.990767
v -0.553453 0.094541 0.981295
v -0.553312 0.169299 0.981365
v -0.555419 0.097119 -0.991131
v -0.555278 0.171877 -0.991061
vt 0.375000 0.000000
vt 0.625000 0.000000
vt 0.625000 0.250000
vt 0.375000 0.250000
vt 0.625000 0.500000
vt 0.375000 0.500000
vt 0.625000 0.750000
vt 0.375000 0.750000
vt 0.625000 1.000000
vt 0.375000 1.000000
vt 0.125000 0.500000
vt 0.125000 0.750000
vt 0.875000 0.500000
vt 0.875000 0.750000
vn -1.0000 0.0019 0.0010
vn -0.0006 0.0009 -1.0000
vn 1.0000 -0.0019 -0.0010
vn 0.0006 -0.0009 1.0000
vn -0.0017 -1.0000 -0.0013
vn 0.0017 1.0000 0.0013
usemtl None
s 1
f 17/29/13 18/30/13 20/31/13 19/32/13
f 19/32/14 20/31/14 24/33/14 23/34/14
f 23/34/15 24/33/15 22/35/15 21/36/15
f 21/36/16 22/35/16 18/37/16 17/38/16
f 19/39/17 23/34/17 21/36/17 17/40/17
f 24/33/18 20/41/18 18/42/18 22/35/18
o Куб.164_Куб.138
v -0.521401 0.097872 0.992285
v -0.521275 0.172630 0.992219
v -0.493221 0.095247 -1.005360
v -0.493094 0.170005 -1.005426
v -0.057479 0.097185 0.996210
v -0.057352 0.171943 0.996144
v -0.029298 0.094560 -1.001435
v -0.029172 0.169318 -1.001501
vt 0.375000 0.000000
vt 0.625000 0.000000
vt 0.625000 0.250000
vt 0.375000 0.250000
vt 0.625000 0.500000
vt 0.375000 0.500000
vt 0.625000 0.750000
vt 0.375000 0.750000
vt 0.625000 1.000000
vt 0.375000 1.000000
vt 0.125000 0.500000
vt 0.125000 0.750000
vt 0.875000 0.500000
vt 0.875000 0.750000
vn -0.9999 0.0017 -0.0141
vn 0.0085 -0.0009 -1.0000
vn 0.9999 -0.0017 0.0141
vn -0.0085 0.0009 1.0000
vn -0.0015 -1.0000 0.0013
vn 0.0015 1.0000 -0.0013
usemtl None
s 1
f 25/43/19 26/44/19 28/45/19 27/46/19
f 27/46/20 28/45/20 32/47/20 31/48/20
f 31/48/21 32/47/21 30/49/21 29/50/21
f 29/50/22 30/49/22 26/51/22 25/52/22
f 27/53/23 31/48/23 29/50/23 25/54/23
f 32/47/24 28/55/24 26/56/24 30/49/24
o Куб.166_Куб.140
v 0.026855 0.093773 0.972848
v 0.027765 0.168528 0.973105
v -0.001363 0.103616 -0.978298
v -0.000452 0.178371 -0.978041
v 0.490743 0.088819 0.968671
v 0.491653 0.163574 0.968928
v 0.462525 0.098662 -0.982475
v 0.463435 0.173417 -0.982218
vt 0.375000 0.000000
vt 0.625000 0.000000
vt 0.625000 0.250000
vt 0.375000 0.250000
vt 0.625000 0.500000
vt 0.375000 0.500000
vt 0.625000 0.750000
vt 0.375000 0.750000
vt 0.625000 1.000000
vt 0.375000 1.000000
vt 0.125000 0.500000
vt 0.125000 0.750000
vt 0.875000 0.500000
vt 0.875000 0.750000
vn -0.9998 0.0121 0.0145
vn -0.0090 0.0035 -1.0000
vn 0.9998 -0.0121 -0.0145
vn 0.0090 -0.0035 1.0000
vn -0.0107 -0.9999 -0.0049
vn 0.0107 0.9999 0.0049
usemtl None
s 1
f 33/57/25 34/58/25 36/59/25 35/60/25
f 35/60/26 36/59/26 40/61/26 39/62/26
f 39/62/27 40/61/27 38/63/27 37/64/27
f 37/64/28 38/63/28 34/65/28 33/66/28
f 35/67/29 39/62/29 37/64/29 33/68/29
f 40/61/30 36/69/30 34/70/30 38/63/30
o Куб.167_Куб.152
v 0.542978 0.096216 0.983030
v 0.542978 0.170974 0.983030
v 0.542978 0.096216 -0.992246
v 0.542978 0.170974 -0.992246
v 1.006930 0.096216 0.983030
v 1.006930 0.170974 0.983030
v 1.006930 0.096216 -0.992246
v 1.006930 0.170974 -0.992246
vt 0.375000 0.000000
vt 0.625000 0.000000
vt 0.625000 0.250000
vt 0.375000 0.250000
vt 0.625000 0.500000
vt 0.375000 0.500000
vt 0.625000 0.750000
vt 0.375000 0.750000
vt 0.625000 1.000000
vt 0.375000 1.000000
vt 0.125000 0.500000
vt 0.125000 0.750000
vt 0.875000 0.500000
vt 0.875000 0.750000
vn -1.0000 0.0000 0.0000
vn 0.0000 0.0000 -1.0000
vn 1.0000 0.0000 0.0000
vn 0.0000 0.0000 1.0000
vn 0.0000 -1.0000 0.0000
vn 0.0000 1.0000 -0.0000
usemtl None
s 1
f 41/71/31 42/72/31 44/73/31 43/74/31
f 43/74/32 44/73/32 48/75/32 47/76/32
f 47/76/33 48/75/33 46/77/33 45/78/33
f 45/78/34 46/77/34 42/79/34 41/80/34
f 43/81/35 47/76/35 45/78/35 41/82/35
f 48/75/36 44/83/36 42/84/36 46/77/36
