# Blender v2.90.0 OBJ File: 'HyperCasual.blend'
# www.blender.org
mtllib little_rock_1.mtl
o Цилиндр.005_Цилиндр.004
v 0.040929 0.862134 -0.971153
v 0.112256 -0.577085 -1.105237
v -0.844373 0.867125 -0.398785
v -0.843220 -0.906228 -0.338513
v -0.319936 0.955009 0.685981
v -0.601224 -0.702975 0.863317
v 0.566023 0.894062 0.963140
v 0.515152 -0.866797 0.970755
v 0.958698 0.897511 -0.281731
v 0.840289 -0.917853 -0.099065
v 0.210631 0.166130 -1.323688
v -1.278113 -0.101802 -0.392282
v -0.746279 0.144443 1.019275
v 0.656882 0.420103 1.301357
v 1.456905 0.017557 0.028028
vt 1.000000 1.000000
vt 0.800000 0.610396
vt 1.000000 0.610396
vt 0.600000 1.000000
vt 0.600000 0.610396
vt 0.400000 0.610396
vt 0.400000 1.000000
vt 0.200000 0.610396
vt 0.000000 1.000000
vt 0.000000 0.610396
vt 0.200000 0.500000
vt 0.000000 0.500000
vt 0.400000 0.500000
vt 0.800000 0.500000
vt 0.600000 0.500000
vt 1.000000 0.500000
vt 0.800000 1.000000
vt 0.200000 1.000000
vn -0.4975 -0.1834 -0.8479
vn -0.8987 -0.2233 0.3775
vn -0.1542 -0.2043 0.9667
vn 0.7885 -0.2330 0.5691
vn 0.6884 -0.2869 -0.6662
vn -0.0328 0.9994 -0.0076
vn -0.0355 0.9973 -0.0636
vn 0.0805 0.9960 -0.0383
vn 0.5135 0.4841 -0.7085
vn 0.8006 0.5427 0.2540
vn -0.2334 0.4723 0.8500
vn -0.7729 0.5421 0.3297
vn -0.5198 0.2817 -0.8065
vn -0.0131 -0.9990 0.0437
vn -0.1608 -0.9673 0.1960
vn 0.0431 -0.9364 -0.3483
vn -0.5179 -0.3326 -0.7881
vn -0.8589 -0.4477 0.2487
vn -0.1271 -0.2337 0.9640
vn 0.7879 -0.5555 0.2660
vn 0.6889 -0.3694 -0.6236
vn 0.7326 0.1841 -0.6552
vn 0.8200 0.4282 0.3798
vn -0.2657 0.5257 0.8081
vn -0.8800 0.3957 0.2625
vn -0.5456 0.2388 -0.8033
usemtl Material
s off
f 2/1/1 12/2/1 11/3/1
f 12/2/2 6/4/2 13/5/2
f 6/4/3 14/6/3 13/5/3
f 8/7/4 15/8/4 14/6/4
f 15/8/5 2/9/5 11/10/5
f 9/11/6 1/12/6 7/13/6
f 3/14/7 5/15/7 1/16/7
f 5/15/8 7/13/8 1/16/8
f 9/11/9 11/10/9 1/12/9
f 7/13/10 15/8/10 9/11/10
f 13/5/11 7/13/11 5/15/11
f 3/14/12 13/5/12 5/15/12
f 11/3/13 3/14/13 1/16/13
f 8/7/14 4/17/14 10/18/14
f 6/4/15 4/17/15 8/7/15
f 4/17/16 2/9/16 10/18/16
f 2/1/17 4/17/17 12/2/17
f 12/2/18 4/17/18 6/4/18
f 6/4/19 8/7/19 14/6/19
f 8/7/20 10/18/20 15/8/20
f 15/8/21 10/18/21 2/9/21
f 9/11/22 15/8/22 11/10/22
f 7/13/23 14/6/23 15/8/23
f 13/5/24 14/6/24 7/13/24
f 3/14/25 12/2/25 13/5/25
f 11/3/26 12/2/26 3/14/26
