# Blender v2.90.0 OBJ File: 'HyperCasual.blend'
# www.blender.org
mtllib rock_1.mtl
o Цилиндр.004_Цилиндр.005
v -0.000000 1.136974 -1.003250
v 0.000001 -5.523648 -2.184844
v -0.961141 0.960344 -0.311281
v -2.196872 -5.523649 -0.588722
v -0.589567 1.069003 0.811759
v -1.357741 -5.523650 1.993858
v 0.595771 0.987626 0.821306
v 1.357743 -5.523649 1.993858
v 0.959236 1.004643 -0.310853
v 2.196874 -5.523648 -0.588722
v 0.000000 -0.007532 -1.752446
v -1.742225 -0.187314 -0.486645
v -1.076754 0.398293 1.561464
v 1.076755 0.241722 1.561463
v 1.742225 -0.681431 -0.486646
vt 1.000000 0.610396
vt 1.000000 1.000000
vt 0.800000 1.000000
vt 0.800000 0.610396
vt 0.600000 1.000000
vt 0.600000 0.610396
vt 0.400000 1.000000
vt 0.400000 0.610396
vt 0.200000 1.000000
vt 0.200000 0.610396
vt 0.000000 1.000000
vt 0.000000 0.610396
vt 0.200000 0.500000
vt 0.000000 0.500000
vt 0.400000 0.500000
vt 0.800000 0.500000
vt 0.600000 0.500000
vt 1.000000 0.500000
vn -0.5885 0.0643 -0.8059
vn -0.9513 0.0710 0.3001
vn 0.0024 0.0738 0.9973
vn 0.9527 0.0752 0.2945
vn 0.5940 0.0674 -0.8017
vn 0.1025 0.9936 0.0478
vn -0.2004 0.9793 -0.0284
vn 0.0679 0.9959 0.0594
vn 0.6136 0.3935 -0.6846
vn 0.8644 0.4823 0.1423
vn 0.0496 0.7237 0.6883
vn -0.7937 0.5944 0.1294
vn -0.5582 0.4669 -0.6859
usemtl Material
s off
f 11/1/1 2/2/1 4/3/1 12/4/1
f 12/4/2 4/3/2 6/5/2 13/6/2
f 13/6/3 6/5/3 8/7/3 14/8/3
f 14/8/4 8/7/4 10/9/4 15/10/4
f 15/10/5 10/9/5 2/11/5 11/12/5
f 9/13/6 1/14/6 7/15/6
f 3/16/7 5/17/7 1/18/7
f 5/17/8 7/15/8 1/18/8
f 9/13/9 15/10/9 11/12/9 1/14/9
f 7/15/10 14/8/10 15/10/10 9/13/10
f 5/17/11 13/6/11 14/8/11 7/15/11
f 3/16/12 12/4/12 13/6/12 5/17/12
f 1/18/13 11/1/13 12/4/13 3/16/13
