# Blender v2.90.0 OBJ File: 'HyperCasual.blend'
# www.blender.org
mtllib rock_3.mtl
o Куб_Куб.239
v -1.720416 -0.911173 0.843544
v -0.989649 1.049310 0.572158
v -1.579357 -0.907403 -0.829193
v -0.736339 0.987423 -0.635381
v 1.597934 -1.066158 0.834559
v 1.067492 0.905080 0.655880
v 1.514039 -0.966317 -0.915608
v 1.212793 0.955997 -0.613135
v -1.594486 0.667723 0.884990
v -1.262778 0.652725 -0.828139
v 1.591435 0.611250 -0.847603
v 1.618991 0.567354 0.937441
vt 0.625000 0.000000
vt 0.531419 0.250000
vt 0.531419 0.000000
vt 0.625000 0.500000
vt 0.531419 0.500000
vt 0.625000 0.750000
vt 0.531419 0.750000
vt 0.625000 1.000000
vt 0.531419 1.000000
vt 0.875000 0.750000
vt 0.375000 0.750000
vt 0.375000 1.000000
vt 0.375000 0.500000
vt 0.375000 0.250000
vt 0.375000 0.000000
vt 0.875000 0.500000
vt 0.625000 0.250000
vn -0.5728 0.8112 -0.1180
vn 0.0026 0.5643 -0.8256
vn 0.5173 0.8557 0.0131
vn 0.0069 0.6274 0.7786
vn 0.0679 0.9965 0.0478
vn -0.0084 -0.0445 0.9990
vn 0.9990 -0.0289 -0.0327
vn -0.0174 0.0242 -0.9996
vn -0.9806 0.1401 -0.1374
vn 0.0166 0.9987 -0.0477
vn -0.4918 0.8582 -0.1471
vn 0.0177 0.4779 -0.8782
vn 0.7053 0.7006 0.1089
vn 0.0152 0.6548 0.7557
usemtl None
s off
f 2/1/1 10/2/1 9/3/1
f 10/2/2 8/4/2 11/5/2
f 11/5/3 6/6/3 12/7/3
f 12/7/4 2/8/4 9/9/4
f 8/4/5 2/10/5 6/6/5
f 5/11/6 12/7/6 9/9/6 1/12/6
f 7/13/7 11/5/7 12/7/7 5/11/7
f 3/14/8 10/2/8 11/5/8 7/13/8
f 1/15/9 9/3/9 10/2/9 3/14/9
f 8/4/10 4/16/10 2/10/10
f 2/1/11 4/17/11 10/2/11
f 10/2/12 4/17/12 8/4/12
f 11/5/13 8/4/13 6/6/13
f 12/7/14 6/6/14 2/8/14
