# Blender v2.90.0 OBJ File: 'HyperCasual.blend'
# www.blender.org
mtllib stairs_1.mtl
o Куб.168_Куб.162
v -2.140490 -0.082973 -1.061587
v -2.140490 0.128423 -1.061587
v 2.020175 -0.082973 -1.061588
v 2.020175 0.128423 -1.061588
v -2.140490 -0.082973 -0.934776
v -2.140490 0.128423 -0.934776
v 2.020175 -0.082973 -0.934776
v 2.020175 0.128423 -0.934776
vt 0.375000 0.000000
vt 0.625000 0.000000
vt 0.625000 0.250000
vt 0.375000 0.250000
vt 0.625000 0.500000
vt 0.375000 0.500000
vt 0.625000 0.750000
vt 0.375000 0.750000
vt 0.625000 1.000000
vt 0.375000 1.000000
vt 0.125000 0.500000
vt 0.125000 0.750000
vt 0.875000 0.500000
vt 0.875000 0.750000
vn -0.0000 0.0000 -1.0000
vn 1.0000 0.0000 0.0000
vn 0.0000 0.0000 1.0000
vn -1.0000 0.0000 0.0000
vn 0.0000 -1.0000 0.0000
vn 0.0000 1.0000 0.0000
usemtl None
s 1
f 1/1/1 2/2/1 4/3/1 3/4/1
f 3/4/2 4/3/2 8/5/2 7/6/2
f 7/6/3 8/5/3 6/7/3 5/8/3
f 5/8/4 6/7/4 2/9/4 1/10/4
f 3/11/5 7/6/5 5/8/5 1/12/5
f 8/5/6 4/13/6 2/14/6 6/7/6
o Куб.169
v -2.140490 -0.082973 0.938413
v -2.140490 0.128423 0.938413
v 2.020175 -0.082973 0.938412
v 2.020175 0.128423 0.938412
v -2.140490 -0.082973 1.065224
v -2.140490 0.128423 1.065224
v 2.020175 -0.082973 1.065224
v 2.020175 0.128423 1.065224
vt 0.375000 0.000000
vt 0.625000 0.000000
vt 0.625000 0.250000
vt 0.375000 0.250000
vt 0.625000 0.500000
vt 0.375000 0.500000
vt 0.625000 0.750000
vt 0.375000 0.750000
vt 0.625000 1.000000
vt 0.375000 1.000000
vt 0.125000 0.500000
vt 0.125000 0.750000
vt 0.875000 0.500000
vt 0.875000 0.750000
vn -0.0000 0.0000 -1.0000
vn 1.0000 0.0000 0.0000
vn 0.0000 0.0000 1.0000
vn -1.0000 0.0000 0.0000
vn 0.0000 -1.0000 0.0000
vn 0.0000 1.0000 0.0000
usemtl None
s 1
f 9/15/7 10/16/7 12/17/7 11/18/7
f 11/18/8 12/17/8 16/19/8 15/20/8
f 15/20/9 16/19/9 14/21/9 13/22/9
f 13/22/10 14/21/10 10/23/10 9/24/10
f 11/25/11 15/20/11 13/22/11 9/26/11
f 16/19/12 12/27/12 10/28/12 14/21/12
o Куб.170_Куб.171
v -0.050718 0.080869 1.136794
v -0.050585 0.155627 1.136877
v -0.052518 0.083386 -1.133075
v -0.052386 0.158144 -1.132992
v 0.311739 0.080227 1.136506
v 0.311871 0.154985 1.136589
v 0.309938 0.082743 -1.133363
v 0.310071 0.157501 -1.133281
vt 0.375000 0.000000
vt 0.625000 0.000000
vt 0.625000 0.250000
vt 0.375000 0.250000
vt 0.625000 0.500000
vt 0.375000 0.500000
vt 0.625000 0.750000
vt 0.375000 0.750000
vt 0.625000 1.000000
vt 0.375000 1.000000
vt 0.125000 0.500000
vt 0.125000 0.750000
vt 0.875000 0.500000
vt 0.875000 0.750000
vn -1.0000 0.0018 0.0008
vn -0.0008 0.0011 -1.0000
vn 1.0000 -0.0018 -0.0008
vn 0.0008 -0.0011 1.0000
vn -0.0018 -1.0000 -0.0011
vn 0.0018 1.0000 0.0011
usemtl None
s 1
f 17/29/13 18/30/13 20/31/13 19/32/13
f 19/32/14 20/31/14 24/33/14 23/34/14
f 23/34/15 24/33/15 22/35/15 21/36/15
f 21/36/16 22/35/16 18/37/16 17/38/16
f 19/39/17 23/34/17 21/36/17 17/40/17
f 24/33/18 20/41/18 18/42/18 22/35/18
o Куб.171_Куб.181
v 0.338575 0.083763 1.171003
v 0.338692 0.157824 1.170924
v 0.364146 0.081225 -1.169777
v 0.364264 0.155286 -1.169856
v 0.697634 0.083197 1.174926
v 0.697752 0.157258 1.174847
v 0.723206 0.080658 -1.165854
v 0.723323 0.154719 -1.165932
vt 0.375000 0.000000
vt 0.625000 0.000000
vt 0.625000 0.250000
vt 0.375000 0.250000
vt 0.625000 0.500000
vt 0.375000 0.500000
vt 0.625000 0.750000
vt 0.375000 0.750000
vt 0.625000 1.000000
vt 0.375000 1.000000
vt 0.125000 0.500000
vt 0.125000 0.750000
vt 0.875000 0.500000
vt 0.875000 0.750000
vn -0.9999 0.0016 -0.0109
vn 0.0109 -0.0011 -0.9999
vn 0.9999 -0.0016 0.0109
vn -0.0109 0.0011 0.9999
vn -0.0016 -1.0000 0.0011
vn 0.0016 1.0000 -0.0011
usemtl None
s 1
f 25/43/19 26/44/19 28/45/19 27/46/19
f 27/46/20 28/45/20 32/47/20 31/48/20
f 31/48/21 32/47/21 30/49/21 29/50/21
f 29/50/22 30/49/22 26/51/22 25/52/22
f 27/53/23 31/48/23 29/50/23 25/54/23
f 32/47/24 28/55/24 26/56/24 30/49/24
o Куб.172_Куб.185
v 0.780306 0.079820 1.139061
v 0.780597 0.154578 1.139235
v 0.736187 0.085268 -1.130469
v 0.736478 0.160025 -1.130295
v 1.142699 0.078425 1.132013
v 1.142991 0.153182 1.132187
v 1.098581 0.083873 -1.137517
v 1.098872 0.158630 -1.137343
vt 0.375000 0.000000
vt 0.625000 0.000000
vt 0.625000 0.250000
vt 0.375000 0.250000
vt 0.625000 0.500000
vt 0.375000 0.500000
vt 0.625000 0.750000
vt 0.375000 0.750000
vt 0.625000 1.000000
vt 0.375000 1.000000
vt 0.125000 0.500000
vt 0.125000 0.750000
vt 0.875000 0.500000
vt 0.875000 0.750000
vn -0.9998 0.0038 0.0194
vn -0.0194 0.0024 -0.9998
vn 0.9998 -0.0039 -0.0194
vn 0.0194 -0.0024 0.9998
vn -0.0039 -1.0000 -0.0023
vn 0.0039 1.0000 0.0023
usemtl None
s 1
f 33/57/25 34/58/25 36/59/25 35/60/25
f 35/60/26 36/59/26 40/61/26 39/62/26
f 39/62/27 40/61/27 38/63/27 37/64/27
f 37/64/28 38/63/28 34/65/28 33/66/28
f 35/67/29 39/62/29 37/64/29 33/68/29
f 40/61/30 36/69/30 34/70/30 38/63/30
o Куб.173_Куб.187
v 1.174360 0.081944 1.170019
v 1.174360 0.156702 1.170019
v 1.174360 0.081944 -1.166377
v 1.174360 0.156702 -1.166377
v 1.536817 0.081944 1.170019
v 1.536817 0.156702 1.170019
v 1.536817 0.081944 -1.166377
v 1.536817 0.156702 -1.166377
vt 0.375000 0.000000
vt 0.625000 0.000000
vt 0.625000 0.250000
vt 0.375000 0.250000
vt 0.625000 0.500000
vt 0.375000 0.500000
vt 0.625000 0.750000
vt 0.375000 0.750000
vt 0.625000 1.000000
vt 0.375000 1.000000
vt 0.125000 0.500000
vt 0.125000 0.750000
vt 0.875000 0.500000
vt 0.875000 0.750000
vn -1.0000 0.0000 0.0000
vn 0.0000 0.0000 -1.0000
vn 1.0000 0.0000 0.0000
vn 0.0000 0.0000 1.0000
vn 0.0000 -1.0000 0.0000
vn 0.0000 1.0000 -0.0000
usemtl None
s 1
f 41/71/31 42/72/31 44/73/31 43/74/31
f 43/74/32 44/73/32 48/75/32 47/76/32
f 47/76/33 48/75/33 46/77/33 45/78/33
f 45/78/34 46/77/34 42/79/34 41/80/34
f 43/81/35 47/76/35 45/78/35 41/82/35
f 48/75/36 44/83/36 42/84/36 46/77/36
o Куб.174_Куб.188
v 1.600824 0.078806 1.139596
v 1.600273 0.153563 1.139712
v 1.558450 0.082003 -1.129964
v 1.557899 0.156759 -1.129848
v 1.963216 0.081489 1.132834
v 1.962665 0.156245 1.132950
v 1.920842 0.084686 -1.136726
v 1.920291 0.159442 -1.136611
vt 0.375000 0.000000
vt 0.625000 0.000000
vt 0.625000 0.250000
vt 0.375000 0.250000
vt 0.625000 0.500000
vt 0.375000 0.500000
vt 0.625000 0.750000
vt 0.375000 0.750000
vt 0.625000 1.000000
vt 0.375000 1.000000
vt 0.125000 0.500000
vt 0.125000 0.750000
vt 0.875000 0.500000
vt 0.875000 0.750000
vn -0.9998 -0.0074 0.0187
vn -0.0187 0.0014 -0.9998
vn 0.9998 0.0074 -0.0187
vn 0.0187 -0.0014 0.9998
vn 0.0074 -1.0000 -0.0015
vn -0.0074 1.0000 0.0015
usemtl None
s 1
f 49/85/37 50/86/37 52/87/37 51/88/37
f 51/88/38 52/87/38 56/89/38 55/90/38
f 55/90/39 56/89/39 54/91/39 53/92/39
f 53/92/40 54/91/40 50/93/40 49/94/40
f 51/95/41 55/90/41 53/92/41 49/96/41
f 56/89/42 52/97/42 50/98/42 54/91/42
o Куб.175_Куб.189
v -1.693057 0.083969 1.158268
v -1.692941 0.157168 1.158190
v -1.667783 0.081460 -1.155267
v -1.667667 0.154659 -1.155345
v -1.338177 0.083409 1.162145
v -1.338061 0.156608 1.162067
v -1.312903 0.080900 -1.151390
v -1.312786 0.154099 -1.151468
vt 0.375000 0.000000
vt 0.625000 0.000000
vt 0.625000 0.250000
vt 0.375000 0.250000
vt 0.625000 0.500000
vt 0.375000 0.500000
vt 0.625000 0.750000
vt 0.375000 0.750000
vt 0.625000 1.000000
vt 0.375000 1.000000
vt 0.125000 0.500000
vt 0.125000 0.750000
vt 0.875000 0.500000
vt 0.875000 0.750000
vn -0.9999 0.0016 -0.0109
vn 0.0109 -0.0011 -0.9999
vn 0.9999 -0.0016 0.0109
vn -0.0109 0.0011 0.9999
vn -0.0016 -1.0000 0.0011
vn 0.0016 1.0000 -0.0011
usemtl None
s 1
f 57/99/43 58/100/43 60/101/43 59/102/43
f 59/102/44 60/101/44 64/103/44 63/104/44
f 63/104/45 64/103/45 62/105/45 61/106/45
f 61/106/46 62/105/46 58/107/46 57/108/46
f 59/109/47 63/104/47 61/106/47 57/110/47
f 64/103/48 60/111/48 58/112/48 62/105/48
o Куб.176_Куб.190
v -1.263008 0.077421 1.137137
v -1.262153 0.152175 1.137444
v -1.288855 0.087029 -1.132599
v -1.288001 0.161783 -1.132293
v -0.900592 0.073297 1.132993
v -0.899738 0.148050 1.133299
v -0.926440 0.082905 -1.136744
v -0.925585 0.157659 -1.136437
vt 0.375000 0.000000
vt 0.625000 0.000000
vt 0.625000 0.250000
vt 0.375000 0.250000
vt 0.625000 0.500000
vt 0.375000 0.500000
vt 0.625000 0.750000
vt 0.375000 0.750000
vt 0.625000 1.000000
vt 0.375000 1.000000
vt 0.125000 0.500000
vt 0.125000 0.750000
vt 0.875000 0.500000
vt 0.875000 0.750000
vn -0.9999 0.0114 0.0114
vn -0.0114 0.0042 -0.9999
vn 0.9999 -0.0114 -0.0114
vn 0.0114 -0.0042 0.9999
vn -0.0114 -0.9999 -0.0041
vn 0.0114 0.9999 0.0041
usemtl None
s 1
f 65/113/49 66/114/49 68/115/49 67/116/49
f 67/116/50 68/115/50 72/117/50 71/118/50
f 71/118/51 72/117/51 70/119/51 69/120/51
f 69/120/52 70/119/52 66/121/52 65/122/52
f 67/123/53 71/118/53 69/120/53 65/124/53
f 72/117/54 68/125/54 66/126/54 70/119/54
o Куб.177_Куб.191
v -0.851803 0.083258 1.170489
v -0.852254 0.158015 1.170388
v -0.866747 0.080013 -1.165868
v -0.867198 0.154770 -1.165968
v -0.489358 0.085441 1.168168
v -0.489809 0.160198 1.168067
v -0.504302 0.082196 -1.168189
v -0.504753 0.156953 -1.168290
vt 0.375000 0.000000
vt 0.625000 0.000000
vt 0.625000 0.250000
vt 0.375000 0.250000
vt 0.625000 0.500000
vt 0.375000 0.500000
vt 0.625000 0.750000
vt 0.375000 0.750000
vt 0.625000 1.000000
vt 0.375000 1.000000
vt 0.125000 0.500000
vt 0.125000 0.750000
vt 0.875000 0.500000
vt 0.875000 0.750000
vn -1.0000 -0.0060 0.0064
vn -0.0064 -0.0014 -1.0000
vn 1.0000 0.0060 -0.0064
vn 0.0064 0.0014 1.0000
vn 0.0060 -1.0000 0.0014
vn -0.0060 1.0000 -0.0014
usemtl None
s 1
f 73/127/55 74/128/55 76/129/55 75/130/55
f 75/130/56 76/129/56 80/131/56 79/132/56
f 79/132/57 80/131/57 78/133/57 77/134/57
f 77/134/58 78/133/58 74/135/58 73/136/58
f 75/137/59 79/132/59 77/134/59 73/138/59
f 80/131/60 76/139/60 74/140/60 78/133/60
o Куб.178_Куб.192
v -0.444569 0.081640 1.137455
v -0.444661 0.156398 1.137469
v -0.464424 0.082058 -1.132349
v -0.464516 0.156816 -1.132335
v -0.082124 0.082085 1.134284
v -0.082216 0.156843 1.134299
v -0.101979 0.082504 -1.135519
v -0.102071 0.157262 -1.135505
vt 0.375000 0.000000
vt 0.625000 0.000000
vt 0.625000 0.250000
vt 0.375000 0.250000
vt 0.625000 0.500000
vt 0.375000 0.500000
vt 0.625000 0.750000
vt 0.375000 0.750000
vt 0.625000 1.000000
vt 0.375000 1.000000
vt 0.125000 0.500000
vt 0.125000 0.750000
vt 0.875000 0.500000
vt 0.875000 0.750000
vn -1.0000 -0.0012 0.0087
vn -0.0087 0.0002 -1.0000
vn 1.0000 0.0012 -0.0087
vn 0.0087 -0.0002 1.0000
vn 0.0012 -1.0000 -0.0002
vn -0.0012 1.0000 0.0002
usemtl None
s 1
f 81/141/61 82/142/61 84/143/61 83/144/61
f 83/144/62 84/143/62 88/145/62 87/146/62
f 87/146/63 88/145/63 86/147/63 85/148/63
f 85/148/64 86/147/64 82/149/64 81/150/64
f 83/151/65 87/146/65 85/148/65 81/152/65
f 88/145/66 84/153/66 82/154/66 86/147/66
o Куб.179_Куб.193
v -2.108918 0.087532 1.158446
v -2.109658 0.160727 1.158368
v -2.083616 0.085319 -1.155090
v -2.084356 0.158514 -1.155168
v -1.754056 0.091123 1.162324
v -1.754796 0.164318 1.162246
v -1.728754 0.088910 -1.151212
v -1.729494 0.162105 -1.151290
vt 0.375000 0.000000
vt 0.625000 0.000000
vt 0.625000 0.250000
vt 0.375000 0.250000
vt 0.625000 0.500000
vt 0.375000 0.500000
vt 0.625000 0.750000
vt 0.375000 0.750000
vt 0.625000 1.000000
vt 0.375000 1.000000
vt 0.125000 0.500000
vt 0.125000 0.750000
vt 0.875000 0.500000
vt 0.875000 0.750000
vn -0.9999 -0.0101 -0.0109
vn 0.0109 -0.0010 -0.9999
vn 0.9999 0.0101 0.0109
vn -0.0109 0.0010 0.9999
vn 0.0101 -0.9999 0.0011
vn -0.0101 0.9999 -0.0011
usemtl None
s 1
f 89/155/67 90/156/67 92/157/67 91/158/67
f 91/158/68 92/157/68 96/159/68 95/160/68
f 95/160/69 96/159/69 94/161/69 93/162/69
f 93/162/70 94/161/70 90/163/70 89/164/70
f 91/165/71 95/160/71 93/162/71 89/166/71
f 96/159/72 92/167/72 90/168/72 94/161/72
