# Blender v2.90.0 OBJ File: 'HyperCasual.blend'
# www.blender.org
mtllib wooden_floor_1m_1.mtl
o Куб.041_Куб.056
v -1.033517 -0.126582 -1.068989
v -1.033517 0.126582 -1.068989
v 1.018430 -0.126582 -1.068990
v 1.018430 0.126582 -1.068990
v -1.033517 -0.126582 -0.942178
v -1.033517 0.126582 -0.942178
v 1.018430 -0.126582 -0.942179
v 1.018430 0.126582 -0.942179
vt 0.375000 0.000000
vt 0.625000 0.000000
vt 0.625000 0.250000
vt 0.375000 0.250000
vt 0.625000 0.500000
vt 0.375000 0.500000
vt 0.625000 0.750000
vt 0.375000 0.750000
vt 0.625000 1.000000
vt 0.375000 1.000000
vt 0.125000 0.500000
vt 0.125000 0.750000
vt 0.875000 0.500000
vt 0.875000 0.750000
vn -0.0000 0.0000 -1.0000
vn 1.0000 0.0000 0.0000
vn 0.0000 0.0000 1.0000
vn -1.0000 0.0000 0.0000
vn 0.0000 -1.0000 0.0000
vn -0.0000 1.0000 0.0000
usemtl None
s 1
f 1/1/1 2/2/1 4/3/1 3/4/1
f 3/4/2 4/3/2 8/5/2 7/6/2
f 7/6/3 8/5/3 6/7/3 5/8/3
f 5/8/4 6/7/4 2/9/4 1/10/4
f 3/11/5 7/6/5 5/8/5 1/12/5
f 8/5/6 4/13/6 2/14/6 6/7/6
o Куб.042_Куб.057
v -1.033517 -0.126582 0.931011
v -1.033517 0.126582 0.931011
v 1.018430 -0.126582 0.931010
v 1.018430 0.126582 0.931010
v -1.033517 -0.126582 1.057822
v -1.033517 0.126582 1.057822
v 1.018430 -0.126582 1.057821
v 1.018430 0.126582 1.057821
vt 0.375000 0.000000
vt 0.625000 0.000000
vt 0.625000 0.250000
vt 0.375000 0.250000
vt 0.625000 0.500000
vt 0.375000 0.500000
vt 0.625000 0.750000
vt 0.375000 0.750000
vt 0.625000 1.000000
vt 0.375000 1.000000
vt 0.125000 0.500000
vt 0.125000 0.750000
vt 0.875000 0.500000
vt 0.875000 0.750000
vn -0.0000 0.0000 -1.0000
vn 1.0000 0.0000 0.0000
vn 0.0000 0.0000 1.0000
vn -1.0000 0.0000 0.0000
vn 0.0000 -1.0000 0.0000
vn -0.0000 1.0000 0.0000
usemtl None
s 1
f 9/15/7 10/16/7 12/17/7 11/18/7
f 11/18/8 12/17/8 16/19/8 15/20/8
f 15/20/9 16/19/9 14/21/9 13/22/9
f 13/22/10 14/21/10 10/23/10 9/24/10
f 11/25/11 15/20/11 13/22/11 9/26/11
f 16/19/12 12/27/12 10/28/12 14/21/12
o Куб.043_Куб.058
v -0.954741 0.095313 1.157259
v -0.954609 0.170071 1.157341
v -0.956586 0.097891 -1.168162
v -0.956453 0.172649 -1.168080
v -0.519365 0.094541 1.156913
v -0.519233 0.169299 1.156995
v -0.521210 0.097119 -1.168509
v -0.521077 0.171877 -1.168427
vt 0.375000 0.000000
vt 0.625000 0.000000
vt 0.625000 0.250000
vt 0.375000 0.250000
vt 0.625000 0.500000
vt 0.375000 0.500000
vt 0.625000 0.750000
vt 0.375000 0.750000
vt 0.625000 1.000000
vt 0.375000 1.000000
vt 0.125000 0.500000
vt 0.125000 0.750000
vt 0.875000 0.500000
vt 0.875000 0.750000
vn -1.0000 0.0018 0.0008
vn -0.0008 0.0011 -1.0000
vn 1.0000 -0.0018 -0.0008
vn 0.0008 -0.0011 1.0000
vn -0.0018 -1.0000 -0.0011
vn 0.0018 1.0000 0.0011
usemtl None
s 1
f 17/29/13 18/30/13 20/31/13 19/32/13
f 19/32/14 20/31/14 24/33/14 23/34/14
f 23/34/15 24/33/15 22/35/15 21/36/15
f 21/36/16 22/35/16 18/37/16 17/38/16
f 19/39/17 23/34/17 21/36/17 17/40/17
f 24/33/18 20/41/18 18/42/18 22/35/18
o Куб.044_Куб.059
v -0.489287 0.097872 1.202418
v -0.489169 0.172630 1.202338
v -0.462843 0.095247 -1.218263
v -0.462724 0.170005 -1.218343
v -0.053939 0.097185 1.207175
v -0.053820 0.171943 1.207095
v -0.027493 0.094560 -1.213506
v -0.027375 0.169318 -1.213586
vt 0.375000 0.000000
vt 0.625000 0.000000
vt 0.625000 0.250000
vt 0.375000 0.250000
vt 0.625000 0.500000
vt 0.375000 0.500000
vt 0.625000 0.750000
vt 0.375000 0.750000
vt 0.625000 1.000000
vt 0.375000 1.000000
vt 0.125000 0.500000
vt 0.125000 0.750000
vt 0.875000 0.500000
vt 0.875000 0.750000
vn -0.9999 0.0016 -0.0109
vn 0.0109 -0.0011 -0.9999
vn 0.9999 -0.0016 0.0109
vn -0.0109 0.0011 0.9999
vn -0.0016 -1.0000 0.0011
vn 0.0016 1.0000 -0.0011
usemtl None
s 1
f 25/43/19 26/44/19 28/45/19 27/46/19
f 27/46/20 28/45/20 32/47/20 31/48/20
f 31/48/21 32/47/21 30/49/21 29/50/21
f 29/50/22 30/49/22 26/51/22 25/52/22
f 27/53/23 31/48/23 29/50/23 25/54/23
f 32/47/24 28/55/24 26/56/24 30/49/24
o Куб.045_Куб.060
v 0.025201 0.093773 1.159420
v 0.026055 0.168528 1.159726
v -0.001279 0.103616 -1.165915
v -0.000424 0.178371 -1.165609
v 0.460517 0.088819 1.154442
v 0.461371 0.163574 1.154748
v 0.434037 0.098662 -1.170894
v 0.434892 0.173417 -1.170588
vt 0.375000 0.000000
vt 0.625000 0.000000
vt 0.625000 0.250000
vt 0.375000 0.250000
vt 0.625000 0.500000
vt 0.375000 0.500000
vt 0.625000 0.750000
vt 0.375000 0.750000
vt 0.625000 1.000000
vt 0.375000 1.000000
vt 0.125000 0.500000
vt 0.125000 0.750000
vt 0.875000 0.500000
vt 0.875000 0.750000
vn -0.9999 0.0114 0.0114
vn -0.0114 0.0042 -0.9999
vn 0.9999 -0.0114 -0.0114
vn 0.0114 -0.0042 0.9999
vn -0.0114 -0.9999 -0.0041
vn 0.0114 0.9999 0.0041
usemtl None
s 1
f 33/57/25 34/58/25 36/59/25 35/60/25
f 35/60/26 36/59/26 40/61/26 39/62/26
f 39/62/27 40/61/27 38/63/27 37/64/27
f 37/64/28 38/63/28 34/65/28 33/66/28
f 35/67/29 39/62/29 37/64/29 33/68/29
f 40/61/30 36/69/30 34/70/30 38/63/30
o Куб.046_Куб.061
v 0.509535 0.096216 1.191204
v 0.509535 0.170974 1.191204
v 0.509535 0.096216 -1.202372
v 0.509535 0.170974 -1.202372
v 0.944912 0.096216 1.191204
v 0.944912 0.170974 1.191204
v 0.944912 0.096216 -1.202372
v 0.944912 0.170974 -1.202372
vt 0.375000 0.000000
vt 0.625000 0.000000
vt 0.625000 0.250000
vt 0.375000 0.250000
vt 0.625000 0.500000
vt 0.375000 0.500000
vt 0.625000 0.750000
vt 0.375000 0.750000
vt 0.625000 1.000000
vt 0.375000 1.000000
vt 0.125000 0.500000
vt 0.125000 0.750000
vt 0.875000 0.500000
vt 0.875000 0.750000
vn -1.0000 0.0000 0.0000
vn 0.0000 0.0000 -1.0000
vn 1.0000 0.0000 0.0000
vn 0.0000 0.0000 1.0000
vn 0.0000 -1.0000 0.0000
vn 0.0000 1.0000 -0.0000
usemtl None
s 1
f 41/71/31 42/72/31 44/73/31 43/74/31
f 43/74/32 44/73/32 48/75/32 47/76/32
f 47/76/33 48/75/33 46/77/33 45/78/33
f 45/78/34 46/77/34 42/79/34 41/80/34
f 43/81/35 47/76/35 45/78/35 41/82/35
f 48/75/36 44/83/36 42/84/36 46/77/36
